<svg xmlns="http://www.w3.org/2000/svg" xmlns:xlink="http://www.w3.org/1999/xlink" width="1080" zoomAndPan="magnify" viewBox="0 0 810 809.999993" height="1080" preserveAspectRatio="xMidYMid meet" version="1.0"><defs><g/><clipPath id="id1"><path d="M 558.285156 307.179688 L 788.535156 307.179688 L 788.535156 502.929688 L 558.285156 502.929688 Z M 558.285156 307.179688 " clip-rule="nonzero"/></clipPath><clipPath id="id2"><path d="M 779.5625 431.242188 L 779.847656 431.082031 C 779.746094 431.140625 779.664062 431.183594 779.5625 431.242188 Z M 723.28125 502.460938 C 724.5625 495.390625 718.671875 473.011719 713.207031 469.597656 C 712.558594 469.191406 711.929688 468.824219 711.320312 468.5 C 734.066406 471.628906 765.914062 453.664062 764.65625 435.917969 C 770.503906 434.761719 775.621094 433.335938 779.542969 431.242188 C 780.558594 430.835938 781.492188 430.246094 782.324219 429.496094 C 784.925781 427.179688 786.671875 423.359375 787.566406 418.460938 C 788.03125 415.960938 788.253906 413.175781 788.277344 410.1875 C 781.859375 415.269531 775.054688 419.433594 767.824219 422.6875 C 760.289062 426.082031 752.324219 428.5 743.917969 429.921875 C 743.265625 432.484375 740.929688 434.394531 738.167969 434.394531 C 734.878906 434.394531 732.21875 431.730469 732.21875 428.4375 C 732.21875 425.144531 734.878906 422.484375 738.167969 422.484375 C 740.34375 422.484375 742.25 423.640625 743.289062 425.390625 C 751.269531 424.027344 758.824219 421.730469 765.976562 418.5 C 766.644531 418.195312 767.316406 417.890625 767.984375 417.566406 C 768.917969 413.195312 768.980469 409.210938 768.230469 405.59375 C 767.78125 403.460938 767.03125 401.449219 765.976562 399.558594 C 765.527344 399.660156 765.082031 399.71875 764.59375 399.71875 C 761.304688 399.71875 758.640625 397.058594 758.640625 393.765625 C 758.640625 390.472656 761.304688 387.808594 764.59375 387.808594 C 767.882812 387.808594 770.542969 390.472656 770.542969 393.765625 C 770.542969 394.882812 770.238281 395.9375 769.691406 396.855469 C 771.113281 399.273438 772.109375 401.875 772.699219 404.660156 C 773.367188 407.871094 773.488281 411.285156 773.042969 414.941406 C 778.304688 411.996094 783.300781 408.5 788.074219 404.457031 C 787.503906 397.179688 785.796875 388.988281 782.953125 380.511719 C 780.03125 371.792969 782.304688 369.191406 768.371094 357.160156 C 763.71875 353.15625 763.558594 343.90625 759.394531 339.152344 C 751.859375 330.554688 742.820312 322.972656 732.257812 317.363281 C 730.65625 327.789062 726.773438 335.816406 720.621094 341.40625 C 720.558594 341.46875 720.480469 341.527344 720.417969 341.589844 C 723.6875 346.875 725.535156 351.914062 725.960938 356.730469 C 726.289062 360.308594 725.820312 363.722656 724.582031 366.996094 C 725.453125 368.03125 725.984375 369.375 725.984375 370.839844 C 725.984375 374.128906 723.320312 376.792969 720.03125 376.792969 C 716.742188 376.792969 714.082031 374.128906 714.082031 370.839844 C 714.082031 367.546875 716.742188 364.882812 720.03125 364.882812 C 720.175781 364.882812 720.316406 364.882812 720.457031 364.902344 C 721.3125 362.402344 721.636719 359.820312 721.394531 357.117188 C 721.046875 353.136719 719.503906 348.886719 716.78125 344.394531 C 710.769531 348.378906 703.152344 350.511719 693.933594 350.816406 C 693.039062 352.953125 690.925781 354.457031 688.449219 354.457031 C 685.160156 354.457031 682.496094 351.792969 682.496094 348.5 C 682.496094 345.207031 685.160156 342.546875 688.449219 342.546875 C 690.925781 342.546875 693.058594 344.070312 693.953125 346.246094 C 704.066406 345.878906 711.929688 343.136719 717.535156 338.011719 C 723.160156 332.890625 726.632812 325.269531 727.953125 315.1875 C 714.792969 309.089844 699.4375 306 681.847656 307.503906 C 679.878906 309.171875 678.070312 310.839844 676.425781 312.484375 C 679.269531 317.503906 683.859375 319.902344 690.195312 319.617188 C 690.84375 317.058594 693.179688 315.148438 695.941406 315.148438 C 699.234375 315.148438 701.894531 317.808594 701.894531 321.101562 C 701.894531 324.394531 699.234375 327.058594 695.941406 327.058594 C 693.789062 327.058594 691.902344 325.898438 690.84375 324.191406 C 682.945312 324.742188 677.054688 321.996094 673.195312 316 C 670.230469 319.515625 668.078125 322.972656 666.738281 326.367188 C 664.480469 332.078125 664.582031 337.6875 667.019531 343.195312 C 667.265625 343.175781 667.507812 343.15625 667.75 343.15625 C 671.042969 343.15625 673.703125 345.816406 673.703125 349.109375 C 673.703125 352.402344 671.042969 355.066406 667.75 355.066406 C 664.460938 355.066406 661.800781 352.402344 661.800781 349.109375 C 661.800781 347.75 662.269531 346.488281 663.039062 345.492188 C 659.890625 338.722656 659.6875 331.792969 662.492188 324.71875 C 664.320312 320.085938 667.425781 315.390625 671.855469 310.675781 C 671.9375 310.574219 672.015625 310.472656 672.117188 310.390625 C 672.726562 309.742188 673.359375 309.109375 674.007812 308.460938 C 673.539062 308.542969 673.074219 308.601562 672.585938 308.683594 C 665.578125 308.378906 657.046875 309.742188 650.570312 311.914062 C 642.808594 313.441406 635.539062 315.308594 628.753906 317.546875 C 627.394531 323.519531 626.582031 329.273438 626.296875 334.800781 C 625.933594 342.140625 626.5 349.070312 628.042969 355.574219 C 630.988281 355.917969 633.285156 358.441406 633.285156 361.46875 C 633.285156 364.761719 630.625 367.421875 627.332031 367.421875 C 624.042969 367.421875 621.382812 364.761719 621.382812 361.46875 C 621.382812 359.578125 622.257812 357.890625 623.636719 356.792969 C 622.175781 350.675781 621.503906 344.234375 621.648438 337.464844 C 620.042969 338.886719 618.296875 339.984375 616.40625 340.738281 C 614.109375 341.652344 611.632812 342.058594 609.011719 341.957031 C 607.957031 343.644531 606.089844 344.761719 603.976562 344.761719 C 600.6875 344.761719 598.023438 342.097656 598.023438 338.804688 C 598.023438 335.511719 600.6875 332.851562 603.976562 332.851562 C 606.777344 332.851562 609.113281 334.78125 609.746094 337.402344 C 611.53125 337.421875 613.199219 337.117188 614.71875 336.507812 C 617.523438 335.390625 619.980469 333.175781 622.113281 329.902344 C 622.457031 326.449219 623.007812 322.910156 623.738281 319.292969 C 592.886719 330.65625 570.929688 349.007812 567.679688 378.480469 C 555.515625 388.175781 557.097656 403.925781 562.664062 414.882812 C 564.167969 417.828125 565.691406 420.328125 567.398438 422.542969 C 573.367188 430.796875 580.070312 437.726562 587.523438 443.335938 C 588.660156 430.9375 592.925781 421.40625 600.339844 414.71875 C 597.761719 410.226562 594.957031 407.320312 591.890625 405.960938 C 589.675781 404.984375 587.238281 404.820312 584.621094 405.492188 C 584.171875 408.335938 581.714844 410.492188 578.75 410.492188 C 575.460938 410.492188 572.800781 407.828125 572.800781 404.535156 C 572.800781 401.242188 575.460938 398.582031 578.75 398.582031 C 580.71875 398.582031 582.46875 399.535156 583.542969 401.019531 C 587.136719 400.105469 590.53125 400.351562 593.71875 401.753906 C 597.539062 403.4375 600.949219 406.792969 603.9375 411.832031 C 608.28125 408.824219 613.480469 406.609375 619.492188 405.1875 C 616.488281 402.199219 614.171875 398.722656 612.527344 394.761719 C 610.902344 390.859375 609.96875 386.507812 609.703125 381.691406 C 607.550781 380.796875 606.027344 378.683594 606.027344 376.183594 C 606.027344 372.890625 608.6875 370.226562 611.980469 370.226562 C 615.269531 370.226562 617.929688 372.890625 617.929688 376.183594 C 617.929688 378.644531 616.425781 380.757812 614.292969 381.671875 C 614.558594 385.859375 615.371094 389.636719 616.773438 393.011719 C 618.601562 397.402344 621.402344 401.101562 625.179688 404.128906 C 630.847656 403.316406 637.144531 403.132812 644.089844 403.539062 L 644.292969 403.5625 C 650.773438 404.558594 655.871094 403.742188 659.527344 401.101562 C 657.414062 400.492188 655.445312 399.273438 653.574219 397.484375 C 651.382812 395.351562 649.371094 392.382812 647.5625 388.539062 C 644.273438 388.539062 641.613281 385.878906 641.613281 382.585938 C 641.613281 379.292969 644.273438 376.628906 647.5625 376.628906 C 650.851562 376.628906 653.515625 379.292969 653.515625 382.585938 C 653.515625 384.210938 652.863281 385.695312 651.789062 386.773438 C 653.332031 390.003906 654.996094 392.484375 656.765625 394.210938 C 658.796875 396.183594 660.988281 397.117188 663.34375 396.996094 C 665.597656 393.4375 666.917969 388.5 667.347656 382.179688 C 667.347656 382.097656 667.367188 382.035156 667.367188 381.957031 C 667.449219 381.246094 667.589844 380.574219 667.773438 379.964844 C 668.585938 377.464844 670.351562 375.734375 673.054688 374.742188 C 675.367188 373.886719 678.414062 373.644531 682.171875 373.988281 C 684 374.152344 686.03125 374.476562 688.226562 374.921875 C 689.890625 373.441406 691.070312 371.855469 691.757812 370.167969 C 691.921875 369.78125 692.042969 369.394531 692.164062 368.988281 C 690.054688 368.074219 688.570312 365.980469 688.570312 363.519531 C 688.570312 360.226562 691.230469 357.566406 694.523438 357.566406 C 697.8125 357.566406 700.472656 360.226562 700.472656 363.519531 C 700.472656 365.980469 698.96875 368.09375 696.835938 369.007812 C 696.652344 369.984375 696.371094 370.941406 695.984375 371.875 C 695.375 373.378906 694.5 374.800781 693.382812 376.144531 C 694.117188 376.347656 694.847656 376.550781 695.597656 376.773438 C 696.695312 375.472656 698.320312 374.636719 700.167969 374.636719 C 703.457031 374.636719 706.117188 377.300781 706.117188 380.59375 C 706.117188 383.886719 703.457031 386.550781 700.167969 386.550781 C 697.082031 386.550781 694.523438 384.171875 694.257812 381.164062 C 692.1875 380.554688 690.234375 380.066406 688.449219 379.660156 C 688.40625 379.660156 688.347656 379.636719 688.304688 379.617188 C 685.890625 379.089844 683.714844 378.722656 681.785156 378.542969 C 678.71875 378.257812 676.34375 378.417969 674.65625 379.050781 C 673.335938 379.535156 672.503906 380.328125 672.140625 381.425781 C 672.039062 381.753906 671.957031 382.097656 671.914062 382.445312 L 671.914062 382.503906 C 671.40625 390.125 669.621094 396.101562 666.554688 400.410156 C 666.511719 400.472656 666.472656 400.53125 666.433594 400.59375 C 665.660156 401.671875 664.785156 402.625 663.851562 403.5 C 659.039062 407.890625 652.335938 409.433594 643.703125 408.113281 C 626.378906 407.097656 613.441406 410.023438 604.828125 416.894531 C 604.746094 416.976562 604.644531 417.058594 604.542969 417.117188 C 604.21875 417.382812 603.914062 417.644531 603.609375 417.910156 C 596.460938 424.25 592.5625 433.742188 591.910156 446.386719 C 611.714844 459.414062 636.390625 463.722656 665.945312 459.3125 C 671.125 458.742188 676.179688 457.789062 681.136719 456.589844 C 683.332031 458.824219 685.746094 460.855469 688.328125 463.582031 C 710.769531 487.28125 707.539062 506.121094 723.28125 502.402344 Z M 723.605469 441.710938 C 722.507812 442.910156 720.945312 443.664062 719.199219 443.664062 C 718.570312 443.664062 717.960938 443.5625 717.410156 443.378906 C 715.015625 442.605469 713.269531 440.371094 713.269531 437.707031 C 713.269531 435.652344 714.304688 433.867188 715.867188 432.789062 C 715.421875 431.265625 714.871094 429.800781 714.222656 428.398438 C 713.023438 425.816406 711.460938 423.460938 709.53125 421.324219 C 703.863281 421.875 698.625 422.523438 693.851562 423.277344 C 693.75 423.296875 693.648438 423.316406 693.546875 423.316406 C 686.09375 424.496094 679.714844 425.917969 674.414062 427.566406 C 668.644531 429.375 664.199219 431.445312 661.109375 433.765625 C 661.414062 434.476562 661.597656 435.269531 661.597656 436.101562 C 661.597656 439.394531 658.9375 442.058594 655.648438 442.058594 C 652.355469 442.058594 649.695312 439.394531 649.695312 436.101562 C 649.695312 432.808594 652.355469 430.144531 655.648438 430.144531 C 656.417969 430.144531 657.148438 430.289062 657.820312 430.550781 C 661.414062 427.707031 666.492188 425.246094 673.054688 423.195312 C 677.441406 421.832031 682.496094 420.613281 688.285156 419.578125 C 686.722656 417.769531 685.484375 415.65625 684.609375 413.234375 C 683.675781 410.695312 683.148438 407.828125 682.984375 404.636719 C 680.894531 403.722656 679.429688 401.628906 679.429688 399.191406 C 679.429688 395.898438 682.089844 393.234375 685.382812 393.234375 C 688.671875 393.234375 691.332031 395.898438 691.332031 399.191406 C 691.332031 401.710938 689.769531 403.84375 687.574219 404.71875 C 687.71875 407.320312 688.164062 409.636719 688.914062 411.671875 C 689.972656 414.558594 691.65625 416.894531 693.972656 418.640625 C 698.910156 417.890625 704.269531 417.238281 710.078125 416.691406 C 723.261719 413.257812 732.765625 408.054688 738.574219 401.039062 C 743.308594 395.351562 745.625 388.378906 745.523438 380.148438 C 743.164062 379.355469 741.460938 377.136719 741.460938 374.496094 C 741.460938 371.203125 744.121094 368.542969 747.410156 368.542969 C 750.699219 368.542969 753.363281 371.203125 753.363281 374.496094 C 753.363281 376.8125 752.042969 378.824219 750.089844 379.800781 C 750.273438 389.253906 747.613281 397.300781 742.089844 403.949219 C 736.179688 411.082031 727 416.488281 714.589844 420.167969 C 716.089844 422.117188 717.371094 424.210938 718.425781 426.445312 C 719.238281 428.175781 719.890625 429.964844 720.417969 431.851562 C 723.160156 432.382812 725.230469 434.800781 725.230469 437.6875 C 725.230469 439.230469 724.640625 440.632812 723.6875 441.671875 Z M 672.625 308.746094 C 672.6875 308.746094 672.726562 308.746094 672.789062 308.746094 Z M 672.625 308.746094 " clip-rule="evenodd"/></clipPath><linearGradient x1="102.486177" gradientTransform="matrix(2.031076, 0, 0, 2.032499, 558.500369, 307.180007)" y1="-5.658654" x2="37.614467" gradientUnits="userSpaceOnUse" y2="116.363979" xlink:type="simple" xlink:actuate="onLoad" id="id3" xlink:show="other"><stop stop-opacity="1" stop-color="rgb(100%, 39.99939%, 76.899719%)" offset="0"/><stop stop-opacity="1" stop-color="rgb(99.827576%, 39.979553%, 76.882935%)" offset="0.0625"/><stop stop-opacity="1" stop-color="rgb(99.102783%, 39.900208%, 76.817322%)" offset="0.0664063"/><stop stop-opacity="1" stop-color="rgb(98.551941%, 39.840698%, 76.766968%)" offset="0.0703125"/><stop stop-opacity="1" stop-color="rgb(97.999573%, 39.779663%, 76.716614%)" offset="0.0742188"/><stop stop-opacity="1" stop-color="rgb(97.44873%, 39.718628%, 76.667786%)" offset="0.078125"/><stop stop-opacity="1" stop-color="rgb(96.897888%, 39.657593%, 76.617432%)" offset="0.0820312"/><stop stop-opacity="1" stop-color="rgb(96.347046%, 39.598083%, 76.567078%)" offset="0.0859375"/><stop stop-opacity="1" stop-color="rgb(95.794678%, 39.537048%, 76.516724%)" offset="0.0898438"/><stop stop-opacity="1" stop-color="rgb(95.243835%, 39.476013%, 76.46637%)" offset="0.09375"/><stop stop-opacity="1" stop-color="rgb(94.691467%, 39.414978%, 76.416016%)" offset="0.0976562"/><stop stop-opacity="1" stop-color="rgb(94.140625%, 39.355469%, 76.365662%)" offset="0.101562"/><stop stop-opacity="1" stop-color="rgb(93.589783%, 39.294434%, 76.315308%)" offset="0.105469"/><stop stop-opacity="1" stop-color="rgb(93.03894%, 39.233398%, 76.266479%)" offset="0.109375"/><stop stop-opacity="1" stop-color="rgb(92.486572%, 39.172363%, 76.216125%)" offset="0.113281"/><stop stop-opacity="1" stop-color="rgb(91.93573%, 39.112854%, 76.165771%)" offset="0.117188"/><stop stop-opacity="1" stop-color="rgb(91.383362%, 39.051819%, 76.115417%)" offset="0.121094"/><stop stop-opacity="1" stop-color="rgb(90.83252%, 38.990784%, 76.065063%)" offset="0.125"/><stop stop-opacity="1" stop-color="rgb(90.281677%, 38.929749%, 76.014709%)" offset="0.128906"/><stop stop-opacity="1" stop-color="rgb(89.730835%, 38.870239%, 75.964355%)" offset="0.132813"/><stop stop-opacity="1" stop-color="rgb(89.178467%, 38.809204%, 75.914001%)" offset="0.136719"/><stop stop-opacity="1" stop-color="rgb(88.627625%, 38.748169%, 75.865173%)" offset="0.140625"/><stop stop-opacity="1" stop-color="rgb(88.075256%, 38.687134%, 75.814819%)" offset="0.144531"/><stop stop-opacity="1" stop-color="rgb(87.524414%, 38.627625%, 75.764465%)" offset="0.148438"/><stop stop-opacity="1" stop-color="rgb(86.973572%, 38.566589%, 75.714111%)" offset="0.152344"/><stop stop-opacity="1" stop-color="rgb(86.422729%, 38.505554%, 75.663757%)" offset="0.15625"/><stop stop-opacity="1" stop-color="rgb(85.870361%, 38.444519%, 75.613403%)" offset="0.160156"/><stop stop-opacity="1" stop-color="rgb(85.319519%, 38.38501%, 75.563049%)" offset="0.164062"/><stop stop-opacity="1" stop-color="rgb(84.767151%, 38.323975%, 75.512695%)" offset="0.167969"/><stop stop-opacity="1" stop-color="rgb(84.216309%, 38.262939%, 75.462341%)" offset="0.171875"/><stop stop-opacity="1" stop-color="rgb(83.665466%, 38.201904%, 75.411987%)" offset="0.175781"/><stop stop-opacity="1" stop-color="rgb(83.114624%, 38.142395%, 75.363159%)" offset="0.179688"/><stop stop-opacity="1" stop-color="rgb(82.562256%, 38.08136%, 75.312805%)" offset="0.183594"/><stop stop-opacity="1" stop-color="rgb(82.011414%, 38.020325%, 75.262451%)" offset="0.1875"/><stop stop-opacity="1" stop-color="rgb(81.459045%, 37.95929%, 75.212097%)" offset="0.191406"/><stop stop-opacity="1" stop-color="rgb(80.908203%, 37.89978%, 75.161743%)" offset="0.195312"/><stop stop-opacity="1" stop-color="rgb(80.357361%, 37.838745%, 75.111389%)" offset="0.199219"/><stop stop-opacity="1" stop-color="rgb(79.806519%, 37.77771%, 75.061035%)" offset="0.203125"/><stop stop-opacity="1" stop-color="rgb(79.25415%, 37.716675%, 75.010681%)" offset="0.207031"/><stop stop-opacity="1" stop-color="rgb(78.703308%, 37.657166%, 74.961853%)" offset="0.210938"/><stop stop-opacity="1" stop-color="rgb(78.15094%, 37.59613%, 74.911499%)" offset="0.214844"/><stop stop-opacity="1" stop-color="rgb(77.600098%, 37.535095%, 74.861145%)" offset="0.21875"/><stop stop-opacity="1" stop-color="rgb(77.049255%, 37.47406%, 74.810791%)" offset="0.222656"/><stop stop-opacity="1" stop-color="rgb(76.498413%, 37.414551%, 74.760437%)" offset="0.226562"/><stop stop-opacity="1" stop-color="rgb(75.946045%, 37.353516%, 74.710083%)" offset="0.230469"/><stop stop-opacity="1" stop-color="rgb(75.395203%, 37.29248%, 74.659729%)" offset="0.234375"/><stop stop-opacity="1" stop-color="rgb(74.842834%, 37.231445%, 74.609375%)" offset="0.238281"/><stop stop-opacity="1" stop-color="rgb(74.291992%, 37.171936%, 74.560547%)" offset="0.242188"/><stop stop-opacity="1" stop-color="rgb(73.739624%, 37.110901%, 74.510193%)" offset="0.246094"/><stop stop-opacity="1" stop-color="rgb(73.188782%, 37.049866%, 74.459839%)" offset="0.25"/><stop stop-opacity="1" stop-color="rgb(72.637939%, 36.988831%, 74.409485%)" offset="0.253906"/><stop stop-opacity="1" stop-color="rgb(72.087097%, 36.929321%, 74.359131%)" offset="0.257812"/><stop stop-opacity="1" stop-color="rgb(71.534729%, 36.868286%, 74.308777%)" offset="0.261719"/><stop stop-opacity="1" stop-color="rgb(70.983887%, 36.807251%, 74.258423%)" offset="0.265625"/><stop stop-opacity="1" stop-color="rgb(70.431519%, 36.746216%, 74.208069%)" offset="0.269531"/><stop stop-opacity="1" stop-color="rgb(69.880676%, 36.686707%, 74.159241%)" offset="0.273438"/><stop stop-opacity="1" stop-color="rgb(69.329834%, 36.625671%, 74.108887%)" offset="0.277344"/><stop stop-opacity="1" stop-color="rgb(68.778992%, 36.564636%, 74.058533%)" offset="0.28125"/><stop stop-opacity="1" stop-color="rgb(68.226624%, 36.503601%, 74.008179%)" offset="0.285156"/><stop stop-opacity="1" stop-color="rgb(67.675781%, 36.444092%, 73.957825%)" offset="0.289063"/><stop stop-opacity="1" stop-color="rgb(67.123413%, 36.383057%, 73.907471%)" offset="0.292969"/><stop stop-opacity="1" stop-color="rgb(66.572571%, 36.322021%, 73.857117%)" offset="0.296875"/><stop stop-opacity="1" stop-color="rgb(66.021729%, 36.260986%, 73.806763%)" offset="0.300781"/><stop stop-opacity="1" stop-color="rgb(65.470886%, 36.201477%, 73.756409%)" offset="0.304688"/><stop stop-opacity="1" stop-color="rgb(64.918518%, 36.140442%, 73.706055%)" offset="0.308594"/><stop stop-opacity="1" stop-color="rgb(64.367676%, 36.079407%, 73.657227%)" offset="0.3125"/><stop stop-opacity="1" stop-color="rgb(63.815308%, 36.018372%, 73.606873%)" offset="0.316406"/><stop stop-opacity="1" stop-color="rgb(63.264465%, 35.958862%, 73.556519%)" offset="0.320313"/><stop stop-opacity="1" stop-color="rgb(62.713623%, 35.897827%, 73.506165%)" offset="0.324219"/><stop stop-opacity="1" stop-color="rgb(62.162781%, 35.836792%, 73.455811%)" offset="0.328125"/><stop stop-opacity="1" stop-color="rgb(61.610413%, 35.775757%, 73.405457%)" offset="0.332031"/><stop stop-opacity="1" stop-color="rgb(61.05957%, 35.716248%, 73.355103%)" offset="0.335938"/><stop stop-opacity="1" stop-color="rgb(60.507202%, 35.655212%, 73.304749%)" offset="0.339844"/><stop stop-opacity="1" stop-color="rgb(59.95636%, 35.594177%, 73.25592%)" offset="0.34375"/><stop stop-opacity="1" stop-color="rgb(59.405518%, 35.533142%, 73.205566%)" offset="0.347656"/><stop stop-opacity="1" stop-color="rgb(58.854675%, 35.473633%, 73.155212%)" offset="0.351563"/><stop stop-opacity="1" stop-color="rgb(58.302307%, 35.412598%, 73.104858%)" offset="0.355469"/><stop stop-opacity="1" stop-color="rgb(57.751465%, 35.351562%, 73.054504%)" offset="0.359375"/><stop stop-opacity="1" stop-color="rgb(57.199097%, 35.290527%, 73.00415%)" offset="0.363281"/><stop stop-opacity="1" stop-color="rgb(56.648254%, 35.231018%, 72.953796%)" offset="0.367188"/><stop stop-opacity="1" stop-color="rgb(56.097412%, 35.169983%, 72.903442%)" offset="0.371094"/><stop stop-opacity="1" stop-color="rgb(55.54657%, 35.108948%, 72.854614%)" offset="0.375"/><stop stop-opacity="1" stop-color="rgb(54.994202%, 35.047913%, 72.80426%)" offset="0.378906"/><stop stop-opacity="1" stop-color="rgb(54.443359%, 34.988403%, 72.753906%)" offset="0.382813"/><stop stop-opacity="1" stop-color="rgb(53.890991%, 34.927368%, 72.703552%)" offset="0.386719"/><stop stop-opacity="1" stop-color="rgb(53.340149%, 34.866333%, 72.653198%)" offset="0.390625"/><stop stop-opacity="1" stop-color="rgb(52.789307%, 34.805298%, 72.602844%)" offset="0.394531"/><stop stop-opacity="1" stop-color="rgb(52.238464%, 34.745789%, 72.55249%)" offset="0.398438"/><stop stop-opacity="1" stop-color="rgb(51.686096%, 34.684753%, 72.502136%)" offset="0.402344"/><stop stop-opacity="1" stop-color="rgb(51.135254%, 34.623718%, 72.453308%)" offset="0.40625"/><stop stop-opacity="1" stop-color="rgb(50.582886%, 34.562683%, 72.402954%)" offset="0.410156"/><stop stop-opacity="1" stop-color="rgb(50.032043%, 34.503174%, 72.3526%)" offset="0.414063"/><stop stop-opacity="1" stop-color="rgb(49.481201%, 34.442139%, 72.302246%)" offset="0.417969"/><stop stop-opacity="1" stop-color="rgb(48.930359%, 34.381104%, 72.251892%)" offset="0.421875"/><stop stop-opacity="1" stop-color="rgb(48.377991%, 34.320068%, 72.201538%)" offset="0.425781"/><stop stop-opacity="1" stop-color="rgb(47.827148%, 34.260559%, 72.151184%)" offset="0.429687"/><stop stop-opacity="1" stop-color="rgb(47.27478%, 34.199524%, 72.10083%)" offset="0.433594"/><stop stop-opacity="1" stop-color="rgb(46.723938%, 34.138489%, 72.050476%)" offset="0.4375"/><stop stop-opacity="1" stop-color="rgb(46.173096%, 34.077454%, 72.000122%)" offset="0.441406"/><stop stop-opacity="1" stop-color="rgb(45.622253%, 34.017944%, 71.951294%)" offset="0.445313"/><stop stop-opacity="1" stop-color="rgb(45.069885%, 33.956909%, 71.90094%)" offset="0.449219"/><stop stop-opacity="1" stop-color="rgb(44.519043%, 33.895874%, 71.850586%)" offset="0.453125"/><stop stop-opacity="1" stop-color="rgb(43.966675%, 33.834839%, 71.800232%)" offset="0.457031"/><stop stop-opacity="1" stop-color="rgb(43.415833%, 33.77533%, 71.749878%)" offset="0.460937"/><stop stop-opacity="1" stop-color="rgb(42.863464%, 33.714294%, 71.699524%)" offset="0.464844"/><stop stop-opacity="1" stop-color="rgb(42.312622%, 33.653259%, 71.64917%)" offset="0.46875"/><stop stop-opacity="1" stop-color="rgb(41.76178%, 33.592224%, 71.598816%)" offset="0.472656"/><stop stop-opacity="1" stop-color="rgb(41.210938%, 33.532715%, 71.549988%)" offset="0.476563"/><stop stop-opacity="1" stop-color="rgb(40.658569%, 33.47168%, 71.499634%)" offset="0.480469"/><stop stop-opacity="1" stop-color="rgb(40.107727%, 33.410645%, 71.44928%)" offset="0.484375"/><stop stop-opacity="1" stop-color="rgb(39.555359%, 33.349609%, 71.398926%)" offset="0.488281"/><stop stop-opacity="1" stop-color="rgb(39.004517%, 33.2901%, 71.348572%)" offset="0.492187"/><stop stop-opacity="1" stop-color="rgb(38.453674%, 33.229065%, 71.298218%)" offset="0.496094"/><stop stop-opacity="1" stop-color="rgb(37.902832%, 33.16803%, 71.247864%)" offset="0.5"/><stop stop-opacity="1" stop-color="rgb(37.350464%, 33.106995%, 71.19751%)" offset="0.503906"/><stop stop-opacity="1" stop-color="rgb(36.799622%, 33.047485%, 71.148682%)" offset="0.507812"/><stop stop-opacity="1" stop-color="rgb(36.247253%, 32.98645%, 71.098328%)" offset="0.511719"/><stop stop-opacity="1" stop-color="rgb(35.696411%, 32.925415%, 71.047974%)" offset="0.515625"/><stop stop-opacity="1" stop-color="rgb(35.145569%, 32.86438%, 70.99762%)" offset="0.519531"/><stop stop-opacity="1" stop-color="rgb(34.594727%, 32.804871%, 70.947266%)" offset="0.523438"/><stop stop-opacity="1" stop-color="rgb(34.042358%, 32.743835%, 70.896912%)" offset="0.527344"/><stop stop-opacity="1" stop-color="rgb(33.491516%, 32.6828%, 70.846558%)" offset="0.53125"/><stop stop-opacity="1" stop-color="rgb(32.939148%, 32.621765%, 70.796204%)" offset="0.535156"/><stop stop-opacity="1" stop-color="rgb(32.388306%, 32.562256%, 70.747375%)" offset="0.539062"/><stop stop-opacity="1" stop-color="rgb(31.837463%, 32.501221%, 70.697021%)" offset="0.542969"/><stop stop-opacity="1" stop-color="rgb(31.286621%, 32.440186%, 70.646667%)" offset="0.546875"/><stop stop-opacity="1" stop-color="rgb(30.734253%, 32.37915%, 70.596313%)" offset="0.550781"/><stop stop-opacity="1" stop-color="rgb(30.183411%, 32.319641%, 70.545959%)" offset="0.554688"/><stop stop-opacity="1" stop-color="rgb(29.631042%, 32.258606%, 70.495605%)" offset="0.558594"/><stop stop-opacity="1" stop-color="rgb(29.0802%, 32.197571%, 70.445251%)" offset="0.5625"/><stop stop-opacity="1" stop-color="rgb(28.529358%, 32.136536%, 70.394897%)" offset="0.566406"/><stop stop-opacity="1" stop-color="rgb(27.978516%, 32.077026%, 70.344543%)" offset="0.570312"/><stop stop-opacity="1" stop-color="rgb(27.426147%, 32.015991%, 70.294189%)" offset="0.574219"/><stop stop-opacity="1" stop-color="rgb(26.875305%, 31.954956%, 70.245361%)" offset="0.578125"/><stop stop-opacity="1" stop-color="rgb(26.322937%, 31.893921%, 70.195007%)" offset="0.582031"/><stop stop-opacity="1" stop-color="rgb(25.772095%, 31.834412%, 70.144653%)" offset="0.585938"/><stop stop-opacity="1" stop-color="rgb(25.221252%, 31.773376%, 70.094299%)" offset="0.589844"/><stop stop-opacity="1" stop-color="rgb(24.67041%, 31.712341%, 70.043945%)" offset="0.59375"/><stop stop-opacity="1" stop-color="rgb(24.118042%, 31.651306%, 69.993591%)" offset="0.597656"/><stop stop-opacity="1" stop-color="rgb(23.5672%, 31.591797%, 69.943237%)" offset="0.601562"/><stop stop-opacity="1" stop-color="rgb(23.014832%, 31.530762%, 69.892883%)" offset="0.605469"/><stop stop-opacity="1" stop-color="rgb(22.463989%, 31.469727%, 69.844055%)" offset="0.609375"/><stop stop-opacity="1" stop-color="rgb(21.913147%, 31.408691%, 69.793701%)" offset="0.613281"/><stop stop-opacity="1" stop-color="rgb(21.362305%, 31.349182%, 69.743347%)" offset="0.617188"/><stop stop-opacity="1" stop-color="rgb(20.809937%, 31.288147%, 69.692993%)" offset="0.621094"/><stop stop-opacity="1" stop-color="rgb(20.259094%, 31.227112%, 69.642639%)" offset="0.625"/><stop stop-opacity="1" stop-color="rgb(19.706726%, 31.166077%, 69.592285%)" offset="0.628906"/><stop stop-opacity="1" stop-color="rgb(19.155884%, 31.106567%, 69.541931%)" offset="0.632812"/><stop stop-opacity="1" stop-color="rgb(18.605042%, 31.045532%, 69.491577%)" offset="0.636719"/><stop stop-opacity="1" stop-color="rgb(18.054199%, 30.984497%, 69.442749%)" offset="0.640625"/><stop stop-opacity="1" stop-color="rgb(17.501831%, 30.923462%, 69.392395%)" offset="0.644531"/><stop stop-opacity="1" stop-color="rgb(16.950989%, 30.863953%, 69.342041%)" offset="0.648438"/><stop stop-opacity="1" stop-color="rgb(16.398621%, 30.802917%, 69.291687%)" offset="0.652344"/><stop stop-opacity="1" stop-color="rgb(15.847778%, 30.741882%, 69.241333%)" offset="0.65625"/><stop stop-opacity="1" stop-color="rgb(15.296936%, 30.680847%, 69.190979%)" offset="0.660156"/><stop stop-opacity="1" stop-color="rgb(14.746094%, 30.621338%, 69.140625%)" offset="0.664062"/><stop stop-opacity="1" stop-color="rgb(14.193726%, 30.560303%, 69.090271%)" offset="0.667969"/><stop stop-opacity="1" stop-color="rgb(13.642883%, 30.499268%, 69.041443%)" offset="0.671875"/><stop stop-opacity="1" stop-color="rgb(13.090515%, 30.438232%, 68.991089%)" offset="0.675781"/><stop stop-opacity="1" stop-color="rgb(12.539673%, 30.378723%, 68.940735%)" offset="0.679688"/><stop stop-opacity="1" stop-color="rgb(11.987305%, 30.317688%, 68.890381%)" offset="0.683594"/><stop stop-opacity="1" stop-color="rgb(11.436462%, 30.256653%, 68.840027%)" offset="0.6875"/><stop stop-opacity="1" stop-color="rgb(10.88562%, 30.195618%, 68.789673%)" offset="0.691406"/><stop stop-opacity="1" stop-color="rgb(10.334778%, 30.136108%, 68.739319%)" offset="0.695312"/><stop stop-opacity="1" stop-color="rgb(9.78241%, 30.075073%, 68.688965%)" offset="0.699219"/><stop stop-opacity="1" stop-color="rgb(9.231567%, 30.015564%, 68.640137%)" offset="0.703125"/><stop stop-opacity="1" stop-color="rgb(8.679199%, 29.954529%, 68.589783%)" offset="0.707031"/><stop stop-opacity="1" stop-color="rgb(8.128357%, 29.893494%, 68.539429%)" offset="0.710938"/><stop stop-opacity="1" stop-color="rgb(7.577515%, 29.832458%, 68.489075%)" offset="0.714844"/><stop stop-opacity="1" stop-color="rgb(7.026672%, 29.772949%, 68.438721%)" offset="0.71875"/><stop stop-opacity="1" stop-color="rgb(6.474304%, 29.711914%, 68.388367%)" offset="0.722656"/><stop stop-opacity="1" stop-color="rgb(5.923462%, 29.650879%, 68.338013%)" offset="0.726562"/><stop stop-opacity="1" stop-color="rgb(5.371094%, 29.589844%, 68.287659%)" offset="0.730469"/><stop stop-opacity="1" stop-color="rgb(4.820251%, 29.530334%, 68.237305%)" offset="0.734375"/><stop stop-opacity="1" stop-color="rgb(4.269409%, 29.469299%, 68.186951%)" offset="0.738281"/><stop stop-opacity="1" stop-color="rgb(3.718567%, 29.408264%, 68.138123%)" offset="0.742188"/><stop stop-opacity="1" stop-color="rgb(3.166199%, 29.347229%, 68.087769%)" offset="0.746094"/><stop stop-opacity="1" stop-color="rgb(2.615356%, 29.28772%, 68.037415%)" offset="0.75"/><stop stop-opacity="1" stop-color="rgb(2.062988%, 29.226685%, 67.987061%)" offset="0.753906"/><stop stop-opacity="1" stop-color="rgb(1.512146%, 29.165649%, 67.936707%)" offset="0.757812"/><stop stop-opacity="1" stop-color="rgb(0.961304%, 29.104614%, 67.886353%)" offset="0.761719"/><stop stop-opacity="1" stop-color="rgb(0.410461%, 29.045105%, 67.835999%)" offset="0.765625"/><stop stop-opacity="1" stop-color="rgb(0.204468%, 29.022217%, 67.817688%)" offset="0.769531"/><stop stop-opacity="1" stop-color="rgb(0%, 28.999329%, 67.799377%)" offset="0.773438"/><stop stop-opacity="1" stop-color="rgb(0%, 28.999329%, 67.799377%)" offset="0.78125"/><stop stop-opacity="1" stop-color="rgb(0%, 28.999329%, 67.799377%)" offset="0.8125"/><stop stop-opacity="1" stop-color="rgb(0%, 28.999329%, 67.799377%)" offset="0.875"/><stop stop-opacity="1" stop-color="rgb(0%, 28.999329%, 67.799377%)" offset="1"/></linearGradient></defs><g clip-path="url(#id1)"><g clip-path="url(#id2)"><path fill="url(#id3)" d="M 558.285156 307.179688 L 558.285156 502.929688 L 788.277344 502.929688 L 788.277344 307.179688 Z M 558.285156 307.179688 " fill-rule="nonzero"/></g></g><g fill="rgb(45.098877%, 45.098877%, 45.098877%)" fill-opacity="1"><g transform="translate(97.09796, 439.141186)"><g><path d="M 63.636719 -8.34375 C 63.636719 -12.910156 59.460938 -16.429688 54.769531 -16.429688 L 26.472656 -16.429688 L 26.472656 -84.761719 C 26.472656 -89.195312 22.296875 -93.105469 17.34375 -93.105469 C 12.257812 -93.105469 8.214844 -89.195312 8.214844 -84.761719 L 8.214844 -8.996094 C 8.214844 -3.910156 12.777344 0 17.996094 0 L 54.769531 0 C 59.722656 0 63.636719 -3.652344 63.636719 -8.34375 Z M 63.636719 -8.34375 "/></g></g></g><g fill="rgb(45.098877%, 45.098877%, 45.098877%)" fill-opacity="1"><g transform="translate(160.069204, 439.141186)"><g><path d="M 33.902344 -24.90625 C 51.507812 -24.90625 59.203125 -32.207031 59.203125 -44.726562 C 59.203125 -57.898438 50.726562 -66.894531 33.644531 -66.894531 C 15.515625 -66.894531 5.867188 -56.855469 5.867188 -43.683594 L 5.867188 -21.90625 C 5.867188 -8.996094 15.777344 0.914062 32.992188 0.914062 C 41.335938 0.914062 58.027344 -1.433594 58.027344 -10.5625 C 58.027344 -13.5625 56.203125 -17.734375 49.941406 -17.734375 C 47.726562 -17.734375 46.550781 -17.210938 46.03125 -16.953125 C 41.859375 -15.125 38.46875 -14.082031 34.296875 -14.082031 C 27.253906 -14.082031 23.863281 -16.953125 23.863281 -21.386719 L 23.863281 -25.6875 C 27.644531 -25.167969 30.511719 -24.90625 33.902344 -24.90625 Z M 41.335938 -45.640625 C 41.335938 -40.03125 38.207031 -38.335938 33.25 -38.335938 C 31.949219 -38.335938 28.035156 -38.46875 23.863281 -38.859375 L 23.863281 -44.464844 C 23.863281 -49.683594 27.253906 -52.941406 33.511719 -52.941406 C 38.597656 -52.941406 41.335938 -50.855469 41.335938 -45.640625 Z M 41.335938 -45.640625 "/></g></g></g><g fill="rgb(45.098877%, 45.098877%, 45.098877%)" fill-opacity="1"><g transform="translate(220.693689, 439.141186)"><g><path d="M 58.679688 -39.902344 C 58.679688 -57.507812 50.984375 -66.894531 32.078125 -66.894531 C 21.253906 -66.894531 9.78125 -63.765625 9.78125 -56.070312 C 9.78125 -52.8125 11.867188 -48.507812 17.34375 -48.507812 C 19.820312 -48.507812 21.253906 -49.421875 22.296875 -49.8125 C 24.90625 -50.984375 27.125 -51.898438 30.773438 -51.898438 C 37.425781 -51.898438 40.683594 -49.03125 40.683594 -42.902344 L 40.683594 -38.730469 C 37.292969 -39.773438 33.902344 -40.03125 30.382812 -40.03125 C 13.171875 -40.03125 4.5625 -33.382812 4.5625 -20.082031 L 4.5625 -19.691406 C 4.5625 -7.300781 12.648438 0.914062 27.773438 0.914062 C 35.078125 0.914062 40.554688 -1.042969 45.378906 -4.957031 C 48.378906 -0.78125 51.636719 0.523438 56.464844 0.523438 C 63.375 0.523438 65.851562 -2.085938 65.851562 -6.257812 C 65.851562 -8.996094 64.808594 -10.433594 62.851562 -11.214844 C 60.636719 -12.128906 58.679688 -11.734375 58.679688 -15.648438 Z M 31.425781 -27.382812 C 34.035156 -27.382812 37.425781 -26.992188 40.683594 -26.339844 L 40.683594 -16.953125 C 37.292969 -14.34375 33.902344 -13.5625 30.511719 -13.5625 C 24.90625 -13.5625 22.429688 -15.257812 22.429688 -19.558594 L 22.429688 -19.949219 C 22.429688 -23.863281 23.863281 -27.382812 31.425781 -27.382812 Z M 31.425781 -27.382812 "/></g></g></g><g fill="rgb(45.098877%, 45.098877%, 45.098877%)" fill-opacity="1"><g transform="translate(286.142071, 439.141186)"><g><path d="M 38.988281 -50.335938 C 43.945312 -50.074219 48.117188 -53.464844 48.117188 -58.550781 C 48.117188 -62.984375 45.640625 -66.375 37.425781 -66.375 C 33.25 -66.375 27.253906 -64.285156 21.253906 -60.765625 C 19.429688 -63.113281 17.082031 -64.808594 14.34375 -64.808594 C 9.648438 -64.808594 5.476562 -61.679688 5.476562 -56.984375 C 5.476562 -55.027344 6.257812 -53.984375 7.300781 -52.679688 C 8.34375 -51.117188 8.738281 -49.550781 8.738281 -46.550781 L 8.738281 -7.171875 C 8.738281 -2.609375 12.648438 0.914062 17.734375 0.914062 C 22.820312 0.914062 26.730469 -2.609375 26.730469 -7.171875 L 26.730469 -46.550781 C 26.730469 -47.335938 26.601562 -48.117188 26.472656 -49.03125 C 31.035156 -50.855469 33.382812 -50.59375 38.988281 -50.335938 Z M 38.988281 -50.335938 "/></g></g></g><g fill="rgb(45.098877%, 45.098877%, 45.098877%)" fill-opacity="1"><g transform="translate(332.685911, 439.141186)"><g><path d="M 26.730469 -46.550781 C 26.730469 -47.335938 26.601562 -48.117188 26.472656 -49.03125 C 30.511719 -50.855469 33.773438 -51.769531 36.511719 -51.769531 C 41.726562 -51.769531 44.988281 -47.726562 44.988281 -41.207031 L 44.988281 -7.171875 C 44.988281 -2.738281 48.246094 0.78125 53.984375 0.78125 C 59.722656 0.78125 62.984375 -2.738281 62.984375 -7.171875 L 62.984375 -41.207031 C 62.984375 -56.464844 54.769531 -66.632812 38.335938 -66.632812 C 33.121094 -66.632812 26.992188 -64.9375 21.125 -61.027344 C 19.300781 -63.375 16.953125 -64.808594 14.214844 -64.808594 C 9.257812 -64.808594 5.476562 -61.546875 5.476562 -57.246094 C 5.476562 -55.550781 5.867188 -54.636719 7.695312 -52.160156 C 8.214844 -51.378906 8.738281 -50.984375 8.738281 -46.683594 L 8.738281 -7.171875 C 8.738281 -2.738281 11.734375 0.78125 17.734375 0.78125 C 23.734375 0.78125 26.730469 -2.738281 26.730469 -7.171875 Z M 26.730469 -46.550781 "/></g></g></g><g fill="rgb(45.098877%, 45.098877%, 45.098877%)" fill-opacity="1"><g transform="translate(401.654475, 439.141186)"><g><path d="M 28.6875 -83.976562 C 28.6875 -88.933594 24.253906 -93.105469 18.515625 -93.105469 C 12.777344 -93.105469 8.34375 -89.0625 8.34375 -83.976562 C 8.34375 -79.023438 12.777344 -74.847656 18.515625 -74.847656 C 24.253906 -74.847656 28.6875 -78.890625 28.6875 -83.976562 Z M 27.515625 -58.550781 C 27.515625 -62.851562 23.601562 -66.503906 18.515625 -66.503906 C 13.429688 -66.503906 9.519531 -62.851562 9.519531 -58.550781 L 9.519531 -7.171875 C 9.519531 -2.609375 13.429688 0.914062 18.515625 0.914062 C 23.601562 0.914062 27.515625 -2.609375 27.515625 -7.171875 Z M 27.515625 -58.550781 "/></g></g></g><g fill="rgb(45.098877%, 45.098877%, 45.098877%)" fill-opacity="1"><g transform="translate(436.203704, 439.141186)"><g><path d="M 8.34375 -7.300781 C 8.34375 -2.867188 11.605469 0.523438 17.34375 0.523438 C 23.082031 0.523438 26.339844 -2.867188 26.339844 -7.300781 L 26.339844 -47.726562 L 35.992188 -47.726562 C 40.816406 -47.726562 44.597656 -50.984375 44.597656 -55.417969 C 44.597656 -59.851562 40.816406 -63.242188 35.992188 -63.242188 L 26.339844 -63.242188 L 26.339844 -69.632812 C 26.339844 -74.328125 28.816406 -78.371094 34.296875 -78.371094 C 36.773438 -78.371094 39.511719 -77.585938 41.988281 -77.585938 C 46.683594 -77.585938 50.855469 -80.457031 50.855469 -85.410156 C 50.855469 -94.019531 38.335938 -94.148438 34.945312 -94.148438 C 20.472656 -93.886719 8.34375 -85.933594 8.34375 -68.71875 Z M 8.34375 -7.300781 "/></g></g></g><g fill="rgb(45.098877%, 45.098877%, 45.098877%)" fill-opacity="1"><g transform="translate(481.704522, 439.141186)"><g><path d="M 35.339844 -39.121094 C 33.773438 -34.425781 32.859375 -28.949219 31.6875 -24.125 C 30.253906 -28.949219 29.339844 -34.425781 27.515625 -39.121094 L 19.300781 -61.027344 C 17.863281 -64.679688 14.605469 -66.503906 11.082031 -66.503906 C 6 -66.503906 2.085938 -63.242188 2.085938 -58.808594 C 2.085938 -58.027344 2.214844 -56.855469 2.738281 -55.550781 L 22.820312 -3.78125 C 19.691406 6.390625 16.820312 10.5625 11.082031 10.824219 C 5.738281 11.082031 2.476562 14.734375 2.476562 18.648438 C 2.476562 23.210938 6.390625 26.472656 11.605469 26.472656 C 31.425781 26.472656 36.382812 11.34375 43.554688 -9.78125 L 59.460938 -56.203125 C 59.722656 -56.855469 59.851562 -57.636719 59.851562 -58.550781 C 59.851562 -63.242188 55.417969 -66.503906 50.855469 -66.503906 C 47.335938 -66.503906 43.554688 -64.808594 42.378906 -61.027344 Z M 35.339844 -39.121094 "/></g></g></g></svg>