<svg xmlns="http://www.w3.org/2000/svg" xmlns:xlink="http://www.w3.org/1999/xlink" width="500" zoomAndPan="magnify" viewBox="0 0 375 374.999991" height="500" preserveAspectRatio="xMidYMid meet" version="1.0"><defs><g/><clipPath id="id1"><path d="M 27.449219 24.863281 L 347.699219 24.863281 L 347.699219 297.113281 L 27.449219 297.113281 Z M 27.449219 24.863281 " clip-rule="nonzero"/></clipPath><clipPath id="id2"><path d="M 335.222656 197.414062 L 335.617188 197.1875 C 335.476562 197.273438 335.363281 197.328125 335.222656 197.414062 Z M 256.941406 296.464844 C 258.722656 286.628906 250.527344 255.503906 242.929688 250.753906 C 242.023438 250.191406 241.148438 249.679688 240.300781 249.226562 C 271.941406 253.582031 316.238281 228.59375 314.484375 203.914062 C 322.621094 202.304688 329.742188 200.324219 335.191406 197.414062 C 336.605469 196.847656 337.90625 196.027344 339.0625 194.980469 C 342.679688 191.757812 345.109375 186.445312 346.351562 179.632812 C 347 176.15625 347.3125 172.28125 347.339844 168.128906 C 338.414062 175.195312 328.949219 180.988281 318.894531 185.511719 C 308.414062 190.234375 297.339844 193.597656 285.644531 195.574219 C 284.738281 199.136719 281.492188 201.792969 277.648438 201.792969 C 273.070312 201.792969 269.371094 198.089844 269.371094 193.511719 C 269.371094 188.933594 273.070312 185.230469 277.648438 185.230469 C 280.671875 185.230469 283.328125 186.839844 284.765625 189.273438 C 295.871094 187.378906 306.378906 184.183594 316.324219 179.6875 C 317.253906 179.265625 318.1875 178.839844 319.117188 178.386719 C 320.417969 172.3125 320.503906 166.769531 319.457031 161.738281 C 318.835938 158.769531 317.792969 155.972656 316.324219 153.34375 C 315.699219 153.484375 315.078125 153.570312 314.402344 153.570312 C 309.824219 153.570312 306.125 149.867188 306.125 145.285156 C 306.125 140.707031 309.824219 137.003906 314.402344 137.003906 C 318.976562 137.003906 322.679688 140.707031 322.679688 145.285156 C 322.679688 146.839844 322.253906 148.3125 321.492188 149.582031 C 323.46875 152.949219 324.855469 156.566406 325.671875 160.4375 C 326.605469 164.90625 326.773438 169.652344 326.152344 174.742188 C 333.46875 170.644531 340.417969 165.78125 347.058594 160.15625 C 346.265625 150.035156 343.894531 138.644531 339.9375 126.855469 C 335.871094 114.730469 339.035156 111.109375 319.65625 94.375 C 313.1875 88.808594 312.960938 75.945312 307.167969 69.332031 C 296.6875 57.371094 284.117188 46.828125 269.425781 39.027344 C 267.195312 53.527344 261.800781 64.695312 253.242188 72.46875 C 253.15625 72.554688 253.042969 72.636719 252.957031 72.722656 C 257.507812 80.070312 260.078125 87.082031 260.671875 93.78125 C 261.121094 98.757812 260.472656 103.507812 258.75 108.058594 C 259.964844 109.5 260.699219 111.363281 260.699219 113.398438 C 260.699219 117.980469 256.996094 121.683594 252.421875 121.683594 C 247.84375 121.683594 244.144531 117.980469 244.144531 113.398438 C 244.144531 108.820312 247.84375 105.117188 252.421875 105.117188 C 252.617188 105.117188 252.816406 105.117188 253.015625 105.144531 C 254.199219 101.667969 254.652344 98.078125 254.3125 94.320312 C 253.832031 88.777344 251.6875 82.871094 247.902344 76.625 C 239.539062 82.164062 228.945312 85.132812 216.121094 85.554688 C 214.878906 88.523438 211.9375 90.617188 208.492188 90.617188 C 203.917969 90.617188 200.214844 86.914062 200.214844 82.332031 C 200.214844 77.753906 203.917969 74.050781 208.492188 74.050781 C 211.9375 74.050781 214.90625 76.171875 216.148438 79.195312 C 230.214844 78.6875 241.148438 74.871094 248.945312 67.746094 C 256.773438 60.625 261.601562 50.023438 263.4375 36.003906 C 245.132812 27.523438 223.777344 23.226562 199.3125 25.316406 C 196.570312 27.636719 194.058594 29.953125 191.769531 32.242188 C 195.722656 39.226562 202.109375 42.558594 210.921875 42.164062 C 211.824219 38.601562 215.074219 35.945312 218.917969 35.945312 C 223.492188 35.945312 227.195312 39.648438 227.195312 44.226562 C 227.195312 48.808594 223.492188 52.511719 218.917969 52.511719 C 215.921875 52.511719 213.296875 50.898438 211.824219 48.523438 C 200.835938 49.289062 192.644531 45.472656 187.277344 37.132812 C 183.152344 42.023438 180.15625 46.828125 178.292969 51.550781 C 175.15625 59.492188 175.300781 67.296875 178.6875 74.957031 C 179.027344 74.925781 179.367188 74.898438 179.707031 74.898438 C 184.28125 74.898438 187.984375 78.601562 187.984375 83.179688 C 187.984375 87.761719 184.28125 91.464844 179.707031 91.464844 C 175.128906 91.464844 171.429688 87.761719 171.429688 83.179688 C 171.429688 81.289062 172.078125 79.535156 173.152344 78.148438 C 168.773438 68.738281 168.492188 59.097656 172.390625 49.261719 C 174.933594 42.816406 179.253906 36.285156 185.414062 29.726562 C 185.523438 29.585938 185.636719 29.445312 185.78125 29.332031 C 186.628906 28.425781 187.503906 27.550781 188.40625 26.644531 C 187.757812 26.757812 187.105469 26.84375 186.429688 26.957031 C 176.683594 26.53125 164.816406 28.425781 155.804688 31.449219 C 145.015625 33.570312 134.902344 36.171875 125.464844 39.28125 C 123.574219 47.59375 122.445312 55.59375 122.046875 63.28125 C 121.539062 73.484375 122.332031 83.125 124.476562 92.171875 C 128.574219 92.652344 131.765625 96.15625 131.765625 100.367188 C 131.765625 104.949219 128.066406 108.652344 123.488281 108.652344 C 118.914062 108.652344 115.210938 104.949219 115.210938 100.367188 C 115.210938 97.738281 116.425781 95.394531 118.347656 93.867188 C 116.3125 85.359375 115.382812 76.398438 115.578125 66.984375 C 113.347656 68.960938 110.917969 70.488281 108.289062 71.535156 C 105.097656 72.808594 101.652344 73.371094 98.007812 73.230469 C 96.539062 75.578125 93.9375 77.132812 91 77.132812 C 86.425781 77.132812 82.722656 73.429688 82.722656 68.851562 C 82.722656 64.269531 86.425781 60.566406 91 60.566406 C 94.898438 60.566406 98.148438 63.253906 99.023438 66.898438 C 101.511719 66.925781 103.828125 66.503906 105.945312 65.65625 C 109.84375 64.101562 113.261719 61.019531 116.226562 56.46875 C 116.707031 51.664062 117.472656 46.742188 118.488281 41.710938 C 75.578125 57.515625 45.039062 83.039062 40.519531 124.027344 C 23.597656 137.511719 25.800781 159.421875 33.539062 174.65625 C 35.632812 178.757812 37.75 182.234375 40.125 185.3125 C 48.429688 196.792969 57.75 206.429688 68.117188 214.234375 C 69.699219 196.988281 75.632812 183.730469 85.945312 174.429688 C 82.355469 168.183594 78.457031 164.140625 74.191406 162.246094 C 71.113281 160.890625 67.722656 160.664062 64.078125 161.597656 C 63.457031 165.554688 60.039062 168.550781 55.914062 168.550781 C 51.339844 168.550781 47.636719 164.847656 47.636719 160.269531 C 47.636719 155.6875 51.339844 151.984375 55.914062 151.984375 C 58.65625 151.984375 61.085938 153.316406 62.582031 155.378906 C 67.582031 154.105469 72.300781 154.445312 76.734375 156.394531 C 82.046875 158.742188 86.792969 163.40625 90.945312 170.417969 C 96.992188 166.234375 104.222656 163.152344 112.585938 161.171875 C 108.402344 157.019531 105.183594 152.183594 102.894531 146.671875 C 100.632812 141.246094 99.335938 135.195312 98.96875 128.496094 C 95.972656 127.25 93.855469 124.3125 93.855469 120.835938 C 93.855469 116.253906 97.554688 112.550781 102.132812 112.550781 C 106.707031 112.550781 110.410156 116.253906 110.410156 120.835938 C 110.410156 124.253906 108.320312 127.195312 105.351562 128.46875 C 105.71875 134.289062 106.847656 139.546875 108.796875 144.242188 C 111.339844 150.347656 115.238281 155.492188 120.496094 159.703125 C 128.375 158.574219 137.132812 158.316406 146.792969 158.882812 L 147.078125 158.910156 C 156.089844 160.296875 163.179688 159.167969 168.265625 155.492188 C 165.328125 154.644531 162.585938 152.949219 159.988281 150.460938 C 156.9375 147.492188 154.140625 143.363281 151.625 138.023438 C 147.050781 138.023438 143.347656 134.320312 143.347656 129.738281 C 143.347656 125.160156 147.050781 121.457031 151.625 121.457031 C 156.203125 121.457031 159.902344 125.160156 159.902344 129.738281 C 159.902344 132 159 134.0625 157.5 135.5625 C 159.648438 140.058594 161.964844 143.503906 164.421875 145.910156 C 167.246094 148.652344 170.296875 149.949219 173.574219 149.78125 C 176.710938 144.835938 178.546875 137.964844 179.140625 129.171875 C 179.140625 129.0625 179.167969 128.976562 179.167969 128.863281 C 179.28125 127.875 179.480469 126.941406 179.734375 126.09375 C 180.863281 122.617188 183.320312 120.210938 187.078125 118.828125 C 190.300781 117.640625 194.539062 117.300781 199.761719 117.78125 C 202.304688 118.007812 205.128906 118.460938 208.183594 119.082031 C 210.5 117.019531 212.136719 114.8125 213.097656 112.46875 C 213.324219 111.929688 213.492188 111.394531 213.664062 110.828125 C 210.722656 109.554688 208.660156 106.644531 208.660156 103.222656 C 208.660156 98.644531 212.363281 94.941406 216.9375 94.941406 C 221.515625 94.941406 225.214844 98.644531 225.214844 103.222656 C 225.214844 106.644531 223.125 109.585938 220.160156 110.855469 C 219.90625 112.214844 219.511719 113.542969 218.972656 114.84375 C 218.125 116.933594 216.910156 118.914062 215.355469 120.777344 C 216.375 121.0625 217.390625 121.34375 218.4375 121.65625 C 219.960938 119.84375 222.222656 118.6875 224.792969 118.6875 C 229.371094 118.6875 233.070312 122.390625 233.070312 126.96875 C 233.070312 131.546875 229.371094 135.25 224.792969 135.25 C 220.5 135.25 216.9375 131.945312 216.570312 127.761719 C 213.691406 126.914062 210.980469 126.234375 208.492188 125.667969 C 208.4375 125.667969 208.351562 125.640625 208.292969 125.613281 C 204.933594 124.878906 201.910156 124.367188 199.226562 124.113281 C 194.960938 123.71875 191.65625 123.945312 189.3125 124.820312 C 187.476562 125.5 186.316406 126.601562 185.808594 128.128906 C 185.667969 128.582031 185.554688 129.0625 185.496094 129.542969 L 185.496094 129.625 C 184.789062 140.226562 182.304688 148.539062 178.039062 154.53125 C 177.984375 154.613281 177.925781 154.699219 177.871094 154.785156 C 176.796875 156.28125 175.582031 157.613281 174.28125 158.828125 C 167.585938 164.933594 158.265625 167.082031 146.257812 165.242188 C 122.160156 163.832031 104.164062 167.902344 92.1875 177.457031 C 92.074219 177.570312 91.933594 177.683594 91.792969 177.765625 C 91.339844 178.132812 90.917969 178.5 90.492188 178.867188 C 80.546875 187.6875 75.125 200.890625 74.222656 218.472656 C 101.765625 236.59375 136.089844 242.585938 177.191406 236.453125 C 184.394531 235.660156 191.429688 234.332031 198.324219 232.664062 C 201.375 235.773438 204.734375 238.597656 208.324219 242.386719 C 239.539062 275.347656 235.046875 301.550781 256.941406 296.378906 Z M 257.394531 211.972656 C 255.867188 213.640625 253.691406 214.683594 251.261719 214.683594 C 250.386719 214.683594 249.539062 214.542969 248.777344 214.289062 C 245.445312 213.214844 243.015625 210.105469 243.015625 206.402344 C 243.015625 203.546875 244.453125 201.058594 246.628906 199.5625 C 246.007812 197.441406 245.246094 195.40625 244.339844 193.457031 C 242.675781 189.867188 240.5 186.585938 237.816406 183.617188 C 229.933594 184.382812 222.644531 185.285156 216.007812 186.332031 C 215.867188 186.359375 215.722656 186.386719 215.582031 186.386719 C 205.214844 188.027344 196.34375 190.007812 188.972656 192.296875 C 180.949219 194.8125 174.761719 197.695312 170.46875 200.917969 C 170.890625 201.90625 171.144531 203.011719 171.144531 204.167969 C 171.144531 208.75 167.445312 212.453125 162.867188 212.453125 C 158.292969 212.453125 154.589844 208.75 154.589844 204.167969 C 154.589844 199.589844 158.292969 195.886719 162.867188 195.886719 C 163.941406 195.886719 164.960938 196.085938 165.890625 196.453125 C 170.890625 192.496094 177.953125 189.074219 187.078125 186.21875 C 193.179688 184.324219 200.214844 182.628906 208.265625 181.1875 C 206.089844 178.671875 204.367188 175.730469 203.152344 172.367188 C 201.855469 168.832031 201.121094 164.847656 200.894531 160.410156 C 197.984375 159.136719 195.949219 156.226562 195.949219 152.835938 C 195.949219 148.253906 199.648438 144.550781 204.226562 144.550781 C 208.804688 144.550781 212.503906 148.253906 212.503906 152.835938 C 212.503906 156.339844 210.328125 159.308594 207.277344 160.523438 C 207.476562 164.140625 208.097656 167.363281 209.140625 170.191406 C 210.609375 174.203125 212.957031 177.457031 216.175781 179.886719 C 223.042969 178.839844 230.5 177.9375 238.578125 177.171875 C 256.914062 172.394531 270.132812 165.160156 278.214844 155.40625 C 284.796875 147.492188 288.015625 137.796875 287.875 126.347656 C 284.597656 125.246094 282.226562 122.164062 282.226562 118.488281 C 282.226562 113.910156 285.925781 110.207031 290.503906 110.207031 C 295.078125 110.207031 298.777344 113.910156 298.777344 118.488281 C 298.777344 121.710938 296.941406 124.507812 294.230469 125.867188 C 294.484375 139.011719 290.785156 150.207031 283.101562 159.449219 C 274.878906 169.371094 262.109375 176.890625 244.851562 182.007812 C 246.941406 184.71875 248.71875 187.632812 250.1875 190.742188 C 251.320312 193.144531 252.222656 195.632812 252.957031 198.261719 C 256.773438 198.996094 259.652344 202.359375 259.652344 206.375 C 259.652344 208.523438 258.832031 210.472656 257.507812 211.914062 Z M 186.484375 27.042969 C 186.570312 27.042969 186.628906 27.042969 186.710938 27.042969 Z M 186.484375 27.042969 " clip-rule="evenodd"/></clipPath><linearGradient x1="102.486174" gradientTransform="matrix(2.824989, 0, 0, 2.826809, 27.749703, 24.864529)" y1="-5.658648" x2="37.614495" gradientUnits="userSpaceOnUse" y2="116.363925" xlink:type="simple" xlink:actuate="onLoad" id="id3" xlink:show="other"><stop stop-opacity="1" stop-color="rgb(100%, 39.99939%, 76.899719%)" offset="0"/><stop stop-opacity="1" stop-color="rgb(99.827576%, 39.979553%, 76.882935%)" offset="0.0625"/><stop stop-opacity="1" stop-color="rgb(99.102783%, 39.900208%, 76.817322%)" offset="0.0664062"/><stop stop-opacity="1" stop-color="rgb(98.551941%, 39.840698%, 76.766968%)" offset="0.0703125"/><stop stop-opacity="1" stop-color="rgb(97.999573%, 39.779663%, 76.716614%)" offset="0.0742188"/><stop stop-opacity="1" stop-color="rgb(97.44873%, 39.718628%, 76.667786%)" offset="0.078125"/><stop stop-opacity="1" stop-color="rgb(96.897888%, 39.657593%, 76.617432%)" offset="0.0820313"/><stop stop-opacity="1" stop-color="rgb(96.347046%, 39.598083%, 76.567078%)" offset="0.0859375"/><stop stop-opacity="1" stop-color="rgb(95.794678%, 39.537048%, 76.516724%)" offset="0.0898438"/><stop stop-opacity="1" stop-color="rgb(95.243835%, 39.476013%, 76.46637%)" offset="0.09375"/><stop stop-opacity="1" stop-color="rgb(94.691467%, 39.414978%, 76.416016%)" offset="0.0976563"/><stop stop-opacity="1" stop-color="rgb(94.140625%, 39.355469%, 76.365662%)" offset="0.101562"/><stop stop-opacity="1" stop-color="rgb(93.589783%, 39.294434%, 76.315308%)" offset="0.105469"/><stop stop-opacity="1" stop-color="rgb(93.03894%, 39.233398%, 76.266479%)" offset="0.109375"/><stop stop-opacity="1" stop-color="rgb(92.486572%, 39.172363%, 76.216125%)" offset="0.113281"/><stop stop-opacity="1" stop-color="rgb(91.93573%, 39.112854%, 76.165771%)" offset="0.117188"/><stop stop-opacity="1" stop-color="rgb(91.383362%, 39.051819%, 76.115417%)" offset="0.121094"/><stop stop-opacity="1" stop-color="rgb(90.83252%, 38.990784%, 76.065063%)" offset="0.125"/><stop stop-opacity="1" stop-color="rgb(90.281677%, 38.929749%, 76.014709%)" offset="0.128906"/><stop stop-opacity="1" stop-color="rgb(89.730835%, 38.870239%, 75.964355%)" offset="0.132812"/><stop stop-opacity="1" stop-color="rgb(89.178467%, 38.809204%, 75.914001%)" offset="0.136719"/><stop stop-opacity="1" stop-color="rgb(88.627625%, 38.748169%, 75.865173%)" offset="0.140625"/><stop stop-opacity="1" stop-color="rgb(88.075256%, 38.687134%, 75.814819%)" offset="0.144531"/><stop stop-opacity="1" stop-color="rgb(87.524414%, 38.627625%, 75.764465%)" offset="0.148438"/><stop stop-opacity="1" stop-color="rgb(86.973572%, 38.566589%, 75.714111%)" offset="0.152344"/><stop stop-opacity="1" stop-color="rgb(86.422729%, 38.505554%, 75.663757%)" offset="0.15625"/><stop stop-opacity="1" stop-color="rgb(85.870361%, 38.444519%, 75.613403%)" offset="0.160156"/><stop stop-opacity="1" stop-color="rgb(85.319519%, 38.38501%, 75.563049%)" offset="0.164062"/><stop stop-opacity="1" stop-color="rgb(84.767151%, 38.323975%, 75.512695%)" offset="0.167969"/><stop stop-opacity="1" stop-color="rgb(84.216309%, 38.262939%, 75.462341%)" offset="0.171875"/><stop stop-opacity="1" stop-color="rgb(83.665466%, 38.201904%, 75.411987%)" offset="0.175781"/><stop stop-opacity="1" stop-color="rgb(83.114624%, 38.142395%, 75.363159%)" offset="0.179688"/><stop stop-opacity="1" stop-color="rgb(82.562256%, 38.08136%, 75.312805%)" offset="0.183594"/><stop stop-opacity="1" stop-color="rgb(82.011414%, 38.020325%, 75.262451%)" offset="0.1875"/><stop stop-opacity="1" stop-color="rgb(81.459045%, 37.95929%, 75.212097%)" offset="0.191406"/><stop stop-opacity="1" stop-color="rgb(80.908203%, 37.89978%, 75.161743%)" offset="0.195313"/><stop stop-opacity="1" stop-color="rgb(80.357361%, 37.838745%, 75.111389%)" offset="0.199219"/><stop stop-opacity="1" stop-color="rgb(79.806519%, 37.77771%, 75.061035%)" offset="0.203125"/><stop stop-opacity="1" stop-color="rgb(79.25415%, 37.716675%, 75.010681%)" offset="0.207031"/><stop stop-opacity="1" stop-color="rgb(78.703308%, 37.657166%, 74.961853%)" offset="0.210938"/><stop stop-opacity="1" stop-color="rgb(78.15094%, 37.59613%, 74.911499%)" offset="0.214844"/><stop stop-opacity="1" stop-color="rgb(77.600098%, 37.535095%, 74.861145%)" offset="0.21875"/><stop stop-opacity="1" stop-color="rgb(77.049255%, 37.47406%, 74.810791%)" offset="0.222656"/><stop stop-opacity="1" stop-color="rgb(76.498413%, 37.414551%, 74.760437%)" offset="0.226562"/><stop stop-opacity="1" stop-color="rgb(75.946045%, 37.353516%, 74.710083%)" offset="0.230469"/><stop stop-opacity="1" stop-color="rgb(75.395203%, 37.29248%, 74.659729%)" offset="0.234375"/><stop stop-opacity="1" stop-color="rgb(74.842834%, 37.231445%, 74.609375%)" offset="0.238281"/><stop stop-opacity="1" stop-color="rgb(74.291992%, 37.171936%, 74.560547%)" offset="0.242188"/><stop stop-opacity="1" stop-color="rgb(73.739624%, 37.110901%, 74.510193%)" offset="0.246094"/><stop stop-opacity="1" stop-color="rgb(73.188782%, 37.049866%, 74.459839%)" offset="0.25"/><stop stop-opacity="1" stop-color="rgb(72.637939%, 36.988831%, 74.409485%)" offset="0.253906"/><stop stop-opacity="1" stop-color="rgb(72.087097%, 36.929321%, 74.359131%)" offset="0.257812"/><stop stop-opacity="1" stop-color="rgb(71.534729%, 36.868286%, 74.308777%)" offset="0.261719"/><stop stop-opacity="1" stop-color="rgb(70.983887%, 36.807251%, 74.258423%)" offset="0.265625"/><stop stop-opacity="1" stop-color="rgb(70.431519%, 36.746216%, 74.208069%)" offset="0.269531"/><stop stop-opacity="1" stop-color="rgb(69.880676%, 36.686707%, 74.159241%)" offset="0.273438"/><stop stop-opacity="1" stop-color="rgb(69.329834%, 36.625671%, 74.108887%)" offset="0.277344"/><stop stop-opacity="1" stop-color="rgb(68.778992%, 36.564636%, 74.058533%)" offset="0.28125"/><stop stop-opacity="1" stop-color="rgb(68.226624%, 36.503601%, 74.008179%)" offset="0.285156"/><stop stop-opacity="1" stop-color="rgb(67.675781%, 36.444092%, 73.957825%)" offset="0.289062"/><stop stop-opacity="1" stop-color="rgb(67.123413%, 36.383057%, 73.907471%)" offset="0.292969"/><stop stop-opacity="1" stop-color="rgb(66.572571%, 36.322021%, 73.857117%)" offset="0.296875"/><stop stop-opacity="1" stop-color="rgb(66.021729%, 36.260986%, 73.806763%)" offset="0.300781"/><stop stop-opacity="1" stop-color="rgb(65.470886%, 36.201477%, 73.756409%)" offset="0.304688"/><stop stop-opacity="1" stop-color="rgb(64.918518%, 36.140442%, 73.706055%)" offset="0.308594"/><stop stop-opacity="1" stop-color="rgb(64.367676%, 36.079407%, 73.657227%)" offset="0.3125"/><stop stop-opacity="1" stop-color="rgb(63.815308%, 36.018372%, 73.606873%)" offset="0.316406"/><stop stop-opacity="1" stop-color="rgb(63.264465%, 35.958862%, 73.556519%)" offset="0.320312"/><stop stop-opacity="1" stop-color="rgb(62.713623%, 35.897827%, 73.506165%)" offset="0.324219"/><stop stop-opacity="1" stop-color="rgb(62.162781%, 35.836792%, 73.455811%)" offset="0.328125"/><stop stop-opacity="1" stop-color="rgb(61.610413%, 35.775757%, 73.405457%)" offset="0.332031"/><stop stop-opacity="1" stop-color="rgb(61.05957%, 35.716248%, 73.355103%)" offset="0.335938"/><stop stop-opacity="1" stop-color="rgb(60.507202%, 35.655212%, 73.304749%)" offset="0.339844"/><stop stop-opacity="1" stop-color="rgb(59.95636%, 35.594177%, 73.25592%)" offset="0.34375"/><stop stop-opacity="1" stop-color="rgb(59.405518%, 35.533142%, 73.205566%)" offset="0.347656"/><stop stop-opacity="1" stop-color="rgb(58.854675%, 35.473633%, 73.155212%)" offset="0.351562"/><stop stop-opacity="1" stop-color="rgb(58.302307%, 35.412598%, 73.104858%)" offset="0.355469"/><stop stop-opacity="1" stop-color="rgb(57.751465%, 35.351562%, 73.054504%)" offset="0.359375"/><stop stop-opacity="1" stop-color="rgb(57.199097%, 35.290527%, 73.00415%)" offset="0.363281"/><stop stop-opacity="1" stop-color="rgb(56.648254%, 35.231018%, 72.953796%)" offset="0.367188"/><stop stop-opacity="1" stop-color="rgb(56.097412%, 35.169983%, 72.903442%)" offset="0.371094"/><stop stop-opacity="1" stop-color="rgb(55.54657%, 35.108948%, 72.854614%)" offset="0.375"/><stop stop-opacity="1" stop-color="rgb(54.994202%, 35.047913%, 72.80426%)" offset="0.378906"/><stop stop-opacity="1" stop-color="rgb(54.443359%, 34.988403%, 72.753906%)" offset="0.382812"/><stop stop-opacity="1" stop-color="rgb(53.890991%, 34.927368%, 72.703552%)" offset="0.386719"/><stop stop-opacity="1" stop-color="rgb(53.340149%, 34.866333%, 72.653198%)" offset="0.390625"/><stop stop-opacity="1" stop-color="rgb(52.789307%, 34.805298%, 72.602844%)" offset="0.394531"/><stop stop-opacity="1" stop-color="rgb(52.238464%, 34.745789%, 72.55249%)" offset="0.398438"/><stop stop-opacity="1" stop-color="rgb(51.686096%, 34.684753%, 72.502136%)" offset="0.402344"/><stop stop-opacity="1" stop-color="rgb(51.135254%, 34.623718%, 72.453308%)" offset="0.40625"/><stop stop-opacity="1" stop-color="rgb(50.582886%, 34.562683%, 72.402954%)" offset="0.410156"/><stop stop-opacity="1" stop-color="rgb(50.032043%, 34.503174%, 72.3526%)" offset="0.414062"/><stop stop-opacity="1" stop-color="rgb(49.481201%, 34.442139%, 72.302246%)" offset="0.417969"/><stop stop-opacity="1" stop-color="rgb(48.930359%, 34.381104%, 72.251892%)" offset="0.421875"/><stop stop-opacity="1" stop-color="rgb(48.377991%, 34.320068%, 72.201538%)" offset="0.425781"/><stop stop-opacity="1" stop-color="rgb(47.827148%, 34.260559%, 72.151184%)" offset="0.429687"/><stop stop-opacity="1" stop-color="rgb(47.27478%, 34.199524%, 72.10083%)" offset="0.433594"/><stop stop-opacity="1" stop-color="rgb(46.723938%, 34.138489%, 72.050476%)" offset="0.4375"/><stop stop-opacity="1" stop-color="rgb(46.173096%, 34.077454%, 72.000122%)" offset="0.441406"/><stop stop-opacity="1" stop-color="rgb(45.622253%, 34.017944%, 71.951294%)" offset="0.445312"/><stop stop-opacity="1" stop-color="rgb(45.069885%, 33.956909%, 71.90094%)" offset="0.449219"/><stop stop-opacity="1" stop-color="rgb(44.519043%, 33.895874%, 71.850586%)" offset="0.453125"/><stop stop-opacity="1" stop-color="rgb(43.966675%, 33.834839%, 71.800232%)" offset="0.457031"/><stop stop-opacity="1" stop-color="rgb(43.415833%, 33.77533%, 71.749878%)" offset="0.460938"/><stop stop-opacity="1" stop-color="rgb(42.863464%, 33.714294%, 71.699524%)" offset="0.464844"/><stop stop-opacity="1" stop-color="rgb(42.312622%, 33.653259%, 71.64917%)" offset="0.46875"/><stop stop-opacity="1" stop-color="rgb(41.76178%, 33.592224%, 71.598816%)" offset="0.472656"/><stop stop-opacity="1" stop-color="rgb(41.210938%, 33.532715%, 71.549988%)" offset="0.476562"/><stop stop-opacity="1" stop-color="rgb(40.658569%, 33.47168%, 71.499634%)" offset="0.480469"/><stop stop-opacity="1" stop-color="rgb(40.107727%, 33.410645%, 71.44928%)" offset="0.484375"/><stop stop-opacity="1" stop-color="rgb(39.555359%, 33.349609%, 71.398926%)" offset="0.488281"/><stop stop-opacity="1" stop-color="rgb(39.004517%, 33.2901%, 71.348572%)" offset="0.492188"/><stop stop-opacity="1" stop-color="rgb(38.453674%, 33.229065%, 71.298218%)" offset="0.496094"/><stop stop-opacity="1" stop-color="rgb(37.902832%, 33.16803%, 71.247864%)" offset="0.5"/><stop stop-opacity="1" stop-color="rgb(37.350464%, 33.106995%, 71.19751%)" offset="0.503906"/><stop stop-opacity="1" stop-color="rgb(36.799622%, 33.047485%, 71.148682%)" offset="0.507812"/><stop stop-opacity="1" stop-color="rgb(36.247253%, 32.98645%, 71.098328%)" offset="0.511719"/><stop stop-opacity="1" stop-color="rgb(35.696411%, 32.925415%, 71.047974%)" offset="0.515625"/><stop stop-opacity="1" stop-color="rgb(35.145569%, 32.86438%, 70.99762%)" offset="0.519531"/><stop stop-opacity="1" stop-color="rgb(34.594727%, 32.804871%, 70.947266%)" offset="0.523438"/><stop stop-opacity="1" stop-color="rgb(34.042358%, 32.743835%, 70.896912%)" offset="0.527344"/><stop stop-opacity="1" stop-color="rgb(33.491516%, 32.6828%, 70.846558%)" offset="0.53125"/><stop stop-opacity="1" stop-color="rgb(32.939148%, 32.621765%, 70.796204%)" offset="0.535156"/><stop stop-opacity="1" stop-color="rgb(32.388306%, 32.562256%, 70.747375%)" offset="0.539062"/><stop stop-opacity="1" stop-color="rgb(31.837463%, 32.501221%, 70.697021%)" offset="0.542969"/><stop stop-opacity="1" stop-color="rgb(31.286621%, 32.440186%, 70.646667%)" offset="0.546875"/><stop stop-opacity="1" stop-color="rgb(30.734253%, 32.37915%, 70.596313%)" offset="0.550781"/><stop stop-opacity="1" stop-color="rgb(30.183411%, 32.319641%, 70.545959%)" offset="0.554688"/><stop stop-opacity="1" stop-color="rgb(29.631042%, 32.258606%, 70.495605%)" offset="0.558594"/><stop stop-opacity="1" stop-color="rgb(29.0802%, 32.197571%, 70.445251%)" offset="0.5625"/><stop stop-opacity="1" stop-color="rgb(28.529358%, 32.136536%, 70.394897%)" offset="0.566406"/><stop stop-opacity="1" stop-color="rgb(27.978516%, 32.077026%, 70.344543%)" offset="0.570312"/><stop stop-opacity="1" stop-color="rgb(27.426147%, 32.015991%, 70.294189%)" offset="0.574219"/><stop stop-opacity="1" stop-color="rgb(26.875305%, 31.954956%, 70.245361%)" offset="0.578125"/><stop stop-opacity="1" stop-color="rgb(26.322937%, 31.893921%, 70.195007%)" offset="0.582031"/><stop stop-opacity="1" stop-color="rgb(25.772095%, 31.834412%, 70.144653%)" offset="0.585938"/><stop stop-opacity="1" stop-color="rgb(25.221252%, 31.773376%, 70.094299%)" offset="0.589844"/><stop stop-opacity="1" stop-color="rgb(24.67041%, 31.712341%, 70.043945%)" offset="0.59375"/><stop stop-opacity="1" stop-color="rgb(24.118042%, 31.651306%, 69.993591%)" offset="0.597656"/><stop stop-opacity="1" stop-color="rgb(23.5672%, 31.591797%, 69.943237%)" offset="0.601563"/><stop stop-opacity="1" stop-color="rgb(23.014832%, 31.530762%, 69.892883%)" offset="0.605469"/><stop stop-opacity="1" stop-color="rgb(22.463989%, 31.469727%, 69.844055%)" offset="0.609375"/><stop stop-opacity="1" stop-color="rgb(21.913147%, 31.408691%, 69.793701%)" offset="0.613281"/><stop stop-opacity="1" stop-color="rgb(21.362305%, 31.349182%, 69.743347%)" offset="0.617188"/><stop stop-opacity="1" stop-color="rgb(20.809937%, 31.288147%, 69.692993%)" offset="0.621094"/><stop stop-opacity="1" stop-color="rgb(20.259094%, 31.227112%, 69.642639%)" offset="0.625"/><stop stop-opacity="1" stop-color="rgb(19.706726%, 31.166077%, 69.592285%)" offset="0.628906"/><stop stop-opacity="1" stop-color="rgb(19.155884%, 31.106567%, 69.541931%)" offset="0.632812"/><stop stop-opacity="1" stop-color="rgb(18.605042%, 31.045532%, 69.491577%)" offset="0.636719"/><stop stop-opacity="1" stop-color="rgb(18.054199%, 30.984497%, 69.442749%)" offset="0.640625"/><stop stop-opacity="1" stop-color="rgb(17.501831%, 30.923462%, 69.392395%)" offset="0.644531"/><stop stop-opacity="1" stop-color="rgb(16.950989%, 30.863953%, 69.342041%)" offset="0.648437"/><stop stop-opacity="1" stop-color="rgb(16.398621%, 30.802917%, 69.291687%)" offset="0.652344"/><stop stop-opacity="1" stop-color="rgb(15.847778%, 30.741882%, 69.241333%)" offset="0.65625"/><stop stop-opacity="1" stop-color="rgb(15.296936%, 30.680847%, 69.190979%)" offset="0.660156"/><stop stop-opacity="1" stop-color="rgb(14.746094%, 30.621338%, 69.140625%)" offset="0.664062"/><stop stop-opacity="1" stop-color="rgb(14.193726%, 30.560303%, 69.090271%)" offset="0.667969"/><stop stop-opacity="1" stop-color="rgb(13.642883%, 30.499268%, 69.041443%)" offset="0.671875"/><stop stop-opacity="1" stop-color="rgb(13.090515%, 30.438232%, 68.991089%)" offset="0.675781"/><stop stop-opacity="1" stop-color="rgb(12.539673%, 30.378723%, 68.940735%)" offset="0.679688"/><stop stop-opacity="1" stop-color="rgb(11.987305%, 30.317688%, 68.890381%)" offset="0.683594"/><stop stop-opacity="1" stop-color="rgb(11.436462%, 30.256653%, 68.840027%)" offset="0.6875"/><stop stop-opacity="1" stop-color="rgb(10.88562%, 30.195618%, 68.789673%)" offset="0.691406"/><stop stop-opacity="1" stop-color="rgb(10.334778%, 30.136108%, 68.739319%)" offset="0.695312"/><stop stop-opacity="1" stop-color="rgb(9.78241%, 30.075073%, 68.688965%)" offset="0.699219"/><stop stop-opacity="1" stop-color="rgb(9.231567%, 30.015564%, 68.640137%)" offset="0.703125"/><stop stop-opacity="1" stop-color="rgb(8.679199%, 29.954529%, 68.589783%)" offset="0.707031"/><stop stop-opacity="1" stop-color="rgb(8.128357%, 29.893494%, 68.539429%)" offset="0.710938"/><stop stop-opacity="1" stop-color="rgb(7.577515%, 29.832458%, 68.489075%)" offset="0.714844"/><stop stop-opacity="1" stop-color="rgb(7.026672%, 29.772949%, 68.438721%)" offset="0.71875"/><stop stop-opacity="1" stop-color="rgb(6.474304%, 29.711914%, 68.388367%)" offset="0.722656"/><stop stop-opacity="1" stop-color="rgb(5.923462%, 29.650879%, 68.338013%)" offset="0.726562"/><stop stop-opacity="1" stop-color="rgb(5.371094%, 29.589844%, 68.287659%)" offset="0.730469"/><stop stop-opacity="1" stop-color="rgb(4.820251%, 29.530334%, 68.237305%)" offset="0.734375"/><stop stop-opacity="1" stop-color="rgb(4.269409%, 29.469299%, 68.186951%)" offset="0.738281"/><stop stop-opacity="1" stop-color="rgb(3.718567%, 29.408264%, 68.138123%)" offset="0.742188"/><stop stop-opacity="1" stop-color="rgb(3.166199%, 29.347229%, 68.087769%)" offset="0.746094"/><stop stop-opacity="1" stop-color="rgb(2.615356%, 29.28772%, 68.037415%)" offset="0.75"/><stop stop-opacity="1" stop-color="rgb(2.062988%, 29.226685%, 67.987061%)" offset="0.753906"/><stop stop-opacity="1" stop-color="rgb(1.512146%, 29.165649%, 67.936707%)" offset="0.757812"/><stop stop-opacity="1" stop-color="rgb(0.961304%, 29.104614%, 67.886353%)" offset="0.761719"/><stop stop-opacity="1" stop-color="rgb(0.410461%, 29.045105%, 67.835999%)" offset="0.765625"/><stop stop-opacity="1" stop-color="rgb(0.204468%, 29.022217%, 67.817688%)" offset="0.769531"/><stop stop-opacity="1" stop-color="rgb(0%, 28.999329%, 67.799377%)" offset="0.773438"/><stop stop-opacity="1" stop-color="rgb(0%, 28.999329%, 67.799377%)" offset="0.78125"/><stop stop-opacity="1" stop-color="rgb(0%, 28.999329%, 67.799377%)" offset="0.8125"/><stop stop-opacity="1" stop-color="rgb(0%, 28.999329%, 67.799377%)" offset="0.875"/><stop stop-opacity="1" stop-color="rgb(0%, 28.999329%, 67.799377%)" offset="1"/></linearGradient></defs><g clip-path="url(#id1)"><g clip-path="url(#id2)"><path fill="url(#id3)" d="M 27.449219 24.863281 L 27.449219 297.113281 L 347.339844 297.113281 L 347.339844 24.863281 Z M 27.449219 24.863281 " fill-rule="nonzero"/></g></g><g fill="rgb(0%, 0%, 0%)" fill-opacity="1"><g transform="translate(101.689894, 350.691013)"><g><path d="M 24.464844 -3.207031 C 24.464844 -4.960938 22.859375 -6.316406 21.054688 -6.316406 L 10.175781 -6.316406 L 10.175781 -32.585938 C 10.175781 -34.289062 8.570312 -35.792969 6.667969 -35.792969 C 4.710938 -35.792969 3.15625 -34.289062 3.15625 -32.585938 L 3.15625 -3.457031 C 3.15625 -1.503906 4.914062 0 6.917969 0 L 21.054688 0 C 22.960938 0 24.464844 -1.402344 24.464844 -3.207031 Z M 24.464844 -3.207031 "/></g></g></g><g fill="rgb(0%, 0%, 0%)" fill-opacity="1"><g transform="translate(125.898138, 350.691013)"><g><path d="M 13.035156 -9.574219 C 19.800781 -9.574219 22.757812 -12.382812 22.757812 -17.195312 C 22.757812 -22.257812 19.5 -25.714844 12.933594 -25.714844 C 5.964844 -25.714844 2.253906 -21.855469 2.253906 -16.792969 L 2.253906 -8.421875 C 2.253906 -3.457031 6.066406 0.351562 12.683594 0.351562 C 15.890625 0.351562 22.308594 -0.550781 22.308594 -4.058594 C 22.308594 -5.214844 21.605469 -6.816406 19.199219 -6.816406 C 18.347656 -6.816406 17.894531 -6.617188 17.695312 -6.515625 C 16.089844 -5.816406 14.789062 -5.414062 13.183594 -5.414062 C 10.476562 -5.414062 9.171875 -6.515625 9.171875 -8.222656 L 9.171875 -9.875 C 10.628906 -9.675781 11.730469 -9.574219 13.035156 -9.574219 Z M 15.890625 -17.546875 C 15.890625 -15.390625 14.6875 -14.738281 12.78125 -14.738281 C 12.28125 -14.738281 10.777344 -14.789062 9.171875 -14.9375 L 9.171875 -17.09375 C 9.171875 -19.097656 10.476562 -20.351562 12.882812 -20.351562 C 14.839844 -20.351562 15.890625 -19.550781 15.890625 -17.546875 Z M 15.890625 -17.546875 "/></g></g></g><g fill="rgb(0%, 0%, 0%)" fill-opacity="1"><g transform="translate(149.204209, 350.691013)"><g><path d="M 22.558594 -15.339844 C 22.558594 -22.105469 19.601562 -25.714844 12.332031 -25.714844 C 8.171875 -25.714844 3.757812 -24.511719 3.757812 -21.554688 C 3.757812 -20.300781 4.5625 -18.648438 6.667969 -18.648438 C 7.621094 -18.648438 8.171875 -19 8.570312 -19.148438 C 9.574219 -19.601562 10.425781 -19.953125 11.832031 -19.953125 C 14.386719 -19.953125 15.640625 -18.847656 15.640625 -16.492188 L 15.640625 -14.886719 C 14.335938 -15.289062 13.035156 -15.390625 11.679688 -15.390625 C 5.0625 -15.390625 1.753906 -12.832031 1.753906 -7.71875 L 1.753906 -7.570312 C 1.753906 -2.808594 4.863281 0.351562 10.675781 0.351562 C 13.484375 0.351562 15.589844 -0.402344 17.445312 -1.90625 C 18.597656 -0.300781 19.851562 0.199219 21.707031 0.199219 C 24.363281 0.199219 25.316406 -0.800781 25.316406 -2.40625 C 25.316406 -3.457031 24.914062 -4.011719 24.164062 -4.3125 C 23.308594 -4.660156 22.558594 -4.511719 22.558594 -6.015625 Z M 12.082031 -10.527344 C 13.082031 -10.527344 14.386719 -10.375 15.640625 -10.125 L 15.640625 -6.515625 C 14.335938 -5.515625 13.035156 -5.214844 11.730469 -5.214844 C 9.574219 -5.214844 8.621094 -5.863281 8.621094 -7.519531 L 8.621094 -7.667969 C 8.621094 -9.171875 9.171875 -10.527344 12.082031 -10.527344 Z M 12.082031 -10.527344 "/></g></g></g><g fill="rgb(0%, 0%, 0%)" fill-opacity="1"><g transform="translate(174.364747, 350.691013)"><g><path d="M 14.988281 -19.351562 C 16.894531 -19.25 18.496094 -20.554688 18.496094 -22.507812 C 18.496094 -24.210938 17.546875 -25.515625 14.386719 -25.515625 C 12.78125 -25.515625 10.476562 -24.714844 8.171875 -23.359375 C 7.46875 -24.261719 6.566406 -24.914062 5.515625 -24.914062 C 3.710938 -24.914062 2.105469 -23.710938 2.105469 -21.90625 C 2.105469 -21.15625 2.40625 -20.753906 2.808594 -20.253906 C 3.207031 -19.652344 3.359375 -19.050781 3.359375 -17.894531 L 3.359375 -2.757812 C 3.359375 -1.003906 4.863281 0.351562 6.816406 0.351562 C 8.773438 0.351562 10.277344 -1.003906 10.277344 -2.757812 L 10.277344 -17.894531 C 10.277344 -18.195312 10.226562 -18.496094 10.175781 -18.847656 C 11.929688 -19.550781 12.832031 -19.449219 14.988281 -19.351562 Z M 14.988281 -19.351562 "/></g></g></g><g fill="rgb(0%, 0%, 0%)" fill-opacity="1"><g transform="translate(192.257749, 350.691013)"><g><path d="M 10.277344 -17.894531 C 10.277344 -18.195312 10.226562 -18.496094 10.175781 -18.847656 C 11.730469 -19.550781 12.984375 -19.902344 14.035156 -19.902344 C 16.042969 -19.902344 17.292969 -18.347656 17.292969 -15.839844 L 17.292969 -2.757812 C 17.292969 -1.050781 18.546875 0.300781 20.753906 0.300781 C 22.960938 0.300781 24.210938 -1.050781 24.210938 -2.757812 L 24.210938 -15.839844 C 24.210938 -21.707031 21.054688 -25.617188 14.738281 -25.617188 C 12.734375 -25.617188 10.375 -24.964844 8.121094 -23.460938 C 7.417969 -24.363281 6.515625 -24.914062 5.464844 -24.914062 C 3.558594 -24.914062 2.105469 -23.660156 2.105469 -22.007812 C 2.105469 -21.355469 2.253906 -21.003906 2.957031 -20.050781 C 3.15625 -19.75 3.359375 -19.601562 3.359375 -17.945312 L 3.359375 -2.757812 C 3.359375 -1.050781 4.511719 0.300781 6.816406 0.300781 C 9.125 0.300781 10.277344 -1.050781 10.277344 -2.757812 Z M 10.277344 -17.894531 "/></g></g></g><g fill="rgb(0%, 0%, 0%)" fill-opacity="1"><g transform="translate(218.771562, 350.691013)"><g><path d="M 11.027344 -32.285156 C 11.027344 -34.1875 9.324219 -35.792969 7.117188 -35.792969 C 4.914062 -35.792969 3.207031 -34.238281 3.207031 -32.285156 C 3.207031 -30.378906 4.914062 -28.773438 7.117188 -28.773438 C 9.324219 -28.773438 11.027344 -30.328125 11.027344 -32.285156 Z M 10.578125 -22.507812 C 10.578125 -24.164062 9.074219 -25.566406 7.117188 -25.566406 C 5.164062 -25.566406 3.660156 -24.164062 3.660156 -22.507812 L 3.660156 -2.757812 C 3.660156 -1.003906 5.164062 0.351562 7.117188 0.351562 C 9.074219 0.351562 10.578125 -1.003906 10.578125 -2.757812 Z M 10.578125 -22.507812 "/></g></g></g><g fill="rgb(0%, 0%, 0%)" fill-opacity="1"><g transform="translate(232.053437, 350.691013)"><g><path d="M 3.207031 -2.808594 C 3.207031 -1.101562 4.460938 0.199219 6.667969 0.199219 C 8.871094 0.199219 10.125 -1.101562 10.125 -2.808594 L 10.125 -18.347656 L 13.835938 -18.347656 C 15.691406 -18.347656 17.144531 -19.601562 17.144531 -21.304688 C 17.144531 -23.007812 15.691406 -24.3125 13.835938 -24.3125 L 10.125 -24.3125 L 10.125 -26.769531 C 10.125 -28.574219 11.078125 -30.128906 13.183594 -30.128906 C 14.136719 -30.128906 15.1875 -29.828125 16.140625 -29.828125 C 17.945312 -29.828125 19.550781 -30.929688 19.550781 -32.835938 C 19.550781 -36.144531 14.738281 -36.195312 13.433594 -36.195312 C 7.871094 -36.09375 3.207031 -33.035156 3.207031 -26.417969 Z M 3.207031 -2.808594 "/></g></g></g><g fill="rgb(0%, 0%, 0%)" fill-opacity="1"><g transform="translate(249.545466, 350.691013)"><g><path d="M 13.585938 -15.039062 C 12.984375 -13.234375 12.632812 -11.128906 12.179688 -9.273438 C 11.628906 -11.128906 11.277344 -13.234375 10.578125 -15.039062 L 7.417969 -23.460938 C 6.867188 -24.863281 5.613281 -25.566406 4.261719 -25.566406 C 2.304688 -25.566406 0.800781 -24.3125 0.800781 -22.609375 C 0.800781 -22.308594 0.851562 -21.855469 1.050781 -21.355469 L 8.773438 -1.453125 C 7.570312 2.457031 6.464844 4.058594 4.261719 4.160156 C 2.207031 4.261719 0.953125 5.664062 0.953125 7.167969 C 0.953125 8.921875 2.457031 10.175781 4.460938 10.175781 C 12.082031 10.175781 13.984375 4.359375 16.742188 -3.757812 L 22.859375 -21.605469 C 22.960938 -21.855469 23.007812 -22.15625 23.007812 -22.507812 C 23.007812 -24.3125 21.304688 -25.566406 19.550781 -25.566406 C 18.195312 -25.566406 16.742188 -24.914062 16.292969 -23.460938 Z M 13.585938 -15.039062 "/></g></g></g></svg>