<svg xmlns="http://www.w3.org/2000/svg" xmlns:xlink="http://www.w3.org/1999/xlink" width="500" zoomAndPan="magnify" viewBox="0 0 375 374.999991" height="500" preserveAspectRatio="xMidYMid meet" version="1.0"><defs><g/><clipPath id="id1"><path d="M 246.425781 149.894531 L 334.925781 149.894531 L 334.925781 224.894531 L 246.425781 224.894531 Z M 246.425781 149.894531 " clip-rule="nonzero"/></clipPath><clipPath id="id2"><path d="M 331.476562 197.429688 L 331.585938 197.367188 C 331.546875 197.390625 331.515625 197.40625 331.476562 197.429688 Z M 309.84375 224.714844 C 310.335938 222.003906 308.074219 213.433594 305.972656 212.125 C 305.722656 211.96875 305.480469 211.828125 305.246094 211.703125 C 313.988281 212.902344 326.230469 206.019531 325.746094 199.21875 C 327.992188 198.777344 329.960938 198.230469 331.46875 197.429688 C 331.859375 197.273438 332.214844 197.046875 332.535156 196.757812 C 333.535156 195.871094 334.207031 194.40625 334.550781 192.53125 C 334.730469 191.574219 334.816406 190.503906 334.824219 189.359375 C 332.355469 191.308594 329.742188 192.902344 326.964844 194.148438 C 324.066406 195.449219 321.007812 196.378906 317.777344 196.921875 C 317.527344 197.902344 316.628906 198.636719 315.566406 198.636719 C 314.300781 198.636719 313.28125 197.617188 313.28125 196.355469 C 313.28125 195.09375 314.300781 194.074219 315.566406 194.074219 C 316.402344 194.074219 317.136719 194.515625 317.535156 195.1875 C 320.601562 194.664062 323.503906 193.785156 326.253906 192.546875 C 326.511719 192.429688 326.769531 192.3125 327.027344 192.1875 C 327.386719 190.511719 327.410156 188.988281 327.121094 187.601562 C 326.949219 186.785156 326.660156 186.011719 326.253906 185.289062 C 326.082031 185.328125 325.910156 185.351562 325.722656 185.351562 C 324.457031 185.351562 323.433594 184.332031 323.433594 183.070312 C 323.433594 181.808594 324.457031 180.789062 325.722656 180.789062 C 326.988281 180.789062 328.007812 181.808594 328.007812 183.070312 C 328.007812 183.496094 327.890625 183.902344 327.679688 184.253906 C 328.226562 185.179688 328.609375 186.175781 328.835938 187.242188 C 329.09375 188.472656 329.140625 189.78125 328.96875 191.183594 C 330.992188 190.054688 332.910156 188.714844 334.746094 187.164062 C 334.527344 184.378906 333.871094 181.238281 332.777344 177.992188 C 331.65625 174.652344 332.527344 173.652344 327.175781 169.042969 C 325.386719 167.507812 325.324219 163.964844 323.722656 162.144531 C 320.828125 158.851562 317.355469 155.945312 313.296875 153.796875 C 312.679688 157.792969 311.1875 160.867188 308.820312 163.007812 C 308.796875 163.03125 308.769531 163.054688 308.746094 163.078125 C 310 165.101562 310.710938 167.035156 310.875 168.878906 C 311 170.25 310.820312 171.558594 310.34375 172.8125 C 310.679688 173.210938 310.882812 173.722656 310.882812 174.285156 C 310.882812 175.546875 309.859375 176.566406 308.597656 176.566406 C 307.332031 176.566406 306.308594 175.546875 306.308594 174.285156 C 306.308594 173.023438 307.332031 172.003906 308.597656 172.003906 C 308.652344 172.003906 308.707031 172.003906 308.761719 172.011719 C 309.085938 171.054688 309.210938 170.0625 309.117188 169.027344 C 308.984375 167.5 308.394531 165.875 307.347656 164.152344 C 305.035156 165.679688 302.109375 166.496094 298.566406 166.613281 C 298.222656 167.433594 297.410156 168.007812 296.457031 168.007812 C 295.191406 168.007812 294.171875 166.988281 294.171875 165.726562 C 294.171875 164.464844 295.191406 163.445312 296.457031 163.445312 C 297.410156 163.445312 298.230469 164.027344 298.574219 164.863281 C 302.460938 164.722656 305.480469 163.671875 307.636719 161.707031 C 309.796875 159.746094 311.132812 156.824219 311.640625 152.964844 C 306.582031 150.625 300.679688 149.441406 293.921875 150.019531 C 293.164062 150.65625 292.46875 151.296875 291.835938 151.925781 C 292.929688 153.851562 294.695312 154.769531 297.128906 154.660156 C 297.378906 153.679688 298.277344 152.949219 299.339844 152.949219 C 300.601562 152.949219 301.625 153.96875 301.625 155.230469 C 301.625 156.492188 300.601562 157.511719 299.339844 157.511719 C 298.511719 157.511719 297.785156 157.066406 297.378906 156.414062 C 294.34375 156.621094 292.078125 155.570312 290.59375 153.273438 C 289.457031 154.621094 288.628906 155.945312 288.113281 157.246094 C 287.246094 159.433594 287.285156 161.582031 288.222656 163.695312 C 288.316406 163.6875 288.410156 163.679688 288.503906 163.679688 C 289.769531 163.679688 290.789062 164.699219 290.789062 165.960938 C 290.789062 167.222656 289.769531 168.242188 288.503906 168.242188 C 287.238281 168.242188 286.214844 167.222656 286.214844 165.960938 C 286.214844 165.4375 286.394531 164.957031 286.691406 164.574219 C 285.480469 161.980469 285.40625 159.324219 286.480469 156.613281 C 287.183594 154.839844 288.378906 153.039062 290.082031 151.234375 C 290.109375 151.195312 290.140625 151.15625 290.179688 151.125 C 290.414062 150.875 290.65625 150.632812 290.90625 150.386719 C 290.726562 150.417969 290.546875 150.441406 290.359375 150.472656 C 287.667969 150.355469 284.390625 150.875 281.898438 151.710938 C 278.917969 152.292969 276.121094 153.007812 273.515625 153.867188 C 272.992188 156.15625 272.679688 158.359375 272.570312 160.476562 C 272.429688 163.289062 272.648438 165.945312 273.242188 168.4375 C 274.375 168.570312 275.257812 169.535156 275.257812 170.695312 C 275.257812 171.957031 274.234375 172.976562 272.96875 172.976562 C 271.703125 172.976562 270.683594 171.957031 270.683594 170.695312 C 270.683594 169.96875 271.019531 169.324219 271.546875 168.902344 C 270.988281 166.558594 270.730469 164.089844 270.785156 161.496094 C 270.167969 162.042969 269.496094 162.464844 268.769531 162.75 C 267.886719 163.101562 266.933594 163.257812 265.929688 163.21875 C 265.523438 163.867188 264.804688 164.292969 263.992188 164.292969 C 262.726562 164.292969 261.707031 163.273438 261.707031 162.011719 C 261.707031 160.75 262.726562 159.730469 263.992188 159.730469 C 265.070312 159.730469 265.96875 160.46875 266.210938 161.472656 C 266.894531 161.480469 267.535156 161.367188 268.121094 161.132812 C 269.199219 160.703125 270.144531 159.855469 270.964844 158.601562 C 271.097656 157.277344 271.308594 155.921875 271.585938 154.535156 C 259.730469 158.890625 251.292969 165.921875 250.042969 177.210938 C 245.367188 180.925781 245.976562 186.960938 248.113281 191.160156 C 248.691406 192.289062 249.277344 193.246094 249.933594 194.097656 C 252.230469 197.257812 254.804688 199.914062 257.667969 202.0625 C 258.105469 197.3125 259.746094 193.660156 262.59375 191.097656 C 261.605469 189.375 260.527344 188.261719 259.347656 187.742188 C 258.496094 187.367188 257.558594 187.304688 256.554688 187.5625 C 256.382812 188.652344 255.4375 189.476562 254.296875 189.476562 C 253.03125 189.476562 252.011719 188.457031 252.011719 187.195312 C 252.011719 185.933594 253.03125 184.914062 254.296875 184.914062 C 255.054688 184.914062 255.726562 185.28125 256.140625 185.847656 C 257.519531 185.5 258.824219 185.59375 260.050781 186.128906 C 261.519531 186.777344 262.828125 188.0625 263.976562 189.992188 C 265.648438 188.839844 267.644531 187.992188 269.957031 187.445312 C 268.800781 186.300781 267.910156 184.96875 267.277344 183.449219 C 266.65625 181.957031 266.296875 180.289062 266.195312 178.441406 C 265.367188 178.101562 264.78125 177.289062 264.78125 176.332031 C 264.78125 175.070312 265.804688 174.050781 267.066406 174.050781 C 268.332031 174.050781 269.355469 175.070312 269.355469 176.332031 C 269.355469 177.273438 268.777344 178.085938 267.957031 178.433594 C 268.058594 180.039062 268.371094 181.488281 268.910156 182.78125 C 269.613281 184.460938 270.691406 185.878906 272.140625 187.039062 C 274.320312 186.730469 276.738281 186.660156 279.410156 186.816406 L 279.488281 186.824219 C 281.976562 187.203125 283.9375 186.890625 285.34375 185.878906 C 284.53125 185.644531 283.773438 185.179688 283.054688 184.492188 C 282.210938 183.675781 281.4375 182.539062 280.746094 181.066406 C 279.480469 181.066406 278.457031 180.046875 278.457031 178.785156 C 278.457031 177.523438 279.480469 176.503906 280.746094 176.503906 C 282.007812 176.503906 283.03125 177.523438 283.03125 178.785156 C 283.03125 179.410156 282.78125 179.976562 282.367188 180.390625 C 282.960938 181.628906 283.601562 182.578125 284.28125 183.238281 C 285.0625 183.996094 285.902344 184.355469 286.808594 184.308594 C 287.675781 182.945312 288.183594 181.050781 288.347656 178.628906 C 288.347656 178.597656 288.355469 178.574219 288.355469 178.542969 C 288.386719 178.273438 288.441406 178.015625 288.511719 177.78125 C 288.824219 176.824219 289.503906 176.160156 290.539062 175.78125 C 291.429688 175.453125 292.601562 175.359375 294.046875 175.492188 C 294.75 175.554688 295.527344 175.679688 296.371094 175.851562 C 297.011719 175.28125 297.464844 174.675781 297.730469 174.027344 C 297.792969 173.878906 297.839844 173.730469 297.886719 173.574219 C 297.074219 173.226562 296.503906 172.421875 296.503906 171.480469 C 296.503906 170.21875 297.527344 169.199219 298.792969 169.199219 C 300.054688 169.199219 301.078125 170.21875 301.078125 171.480469 C 301.078125 172.421875 300.5 173.234375 299.679688 173.582031 C 299.609375 173.957031 299.5 174.324219 299.355469 174.683594 C 299.121094 175.257812 298.785156 175.804688 298.355469 176.316406 C 298.636719 176.394531 298.917969 176.472656 299.207031 176.558594 C 299.625 176.058594 300.25 175.742188 300.960938 175.742188 C 302.226562 175.742188 303.25 176.761719 303.25 178.023438 C 303.25 179.285156 302.226562 180.304688 300.960938 180.304688 C 299.773438 180.304688 298.792969 179.394531 298.691406 178.242188 C 297.894531 178.007812 297.144531 177.820312 296.457031 177.664062 C 296.441406 177.664062 296.417969 177.65625 296.402344 177.648438 C 295.472656 177.445312 294.640625 177.304688 293.898438 177.234375 C 292.71875 177.128906 291.804688 177.1875 291.15625 177.429688 C 290.648438 177.617188 290.328125 177.921875 290.1875 178.34375 C 290.148438 178.464844 290.117188 178.597656 290.105469 178.730469 L 290.105469 178.753906 C 289.910156 181.675781 289.222656 183.964844 288.042969 185.617188 C 288.027344 185.640625 288.011719 185.660156 287.996094 185.683594 C 287.699219 186.097656 287.363281 186.464844 287.003906 186.800781 C 285.15625 188.480469 282.578125 189.074219 279.261719 188.566406 C 272.601562 188.175781 267.628906 189.296875 264.320312 191.929688 C 264.289062 191.960938 264.25 191.992188 264.210938 192.015625 C 264.085938 192.117188 263.96875 192.21875 263.851562 192.320312 C 261.105469 194.75 259.605469 198.386719 259.355469 203.230469 C 266.964844 208.222656 276.449219 209.871094 287.808594 208.183594 C 289.800781 207.964844 291.742188 207.597656 293.648438 207.140625 C 294.492188 207.996094 295.417969 208.773438 296.410156 209.820312 C 305.035156 218.898438 303.796875 226.117188 309.84375 224.691406 Z M 309.96875 201.4375 C 309.546875 201.898438 308.945312 202.1875 308.277344 202.1875 C 308.035156 202.1875 307.800781 202.148438 307.589844 202.078125 C 306.667969 201.78125 305.996094 200.925781 305.996094 199.90625 C 305.996094 199.117188 306.394531 198.433594 306.996094 198.019531 C 306.824219 197.4375 306.613281 196.875 306.363281 196.339844 C 305.902344 195.347656 305.300781 194.445312 304.558594 193.628906 C 302.382812 193.839844 300.367188 194.089844 298.535156 194.375 C 298.496094 194.382812 298.457031 194.390625 298.417969 194.390625 C 295.550781 194.84375 293.101562 195.386719 291.0625 196.019531 C 288.847656 196.710938 287.136719 197.507812 285.949219 198.394531 C 286.066406 198.667969 286.136719 198.96875 286.136719 199.289062 C 286.136719 200.550781 285.117188 201.570312 283.851562 201.570312 C 282.585938 201.570312 281.5625 200.550781 281.5625 199.289062 C 281.5625 198.027344 282.585938 197.007812 283.851562 197.007812 C 284.148438 197.007812 284.429688 197.0625 284.6875 197.164062 C 286.066406 196.074219 288.019531 195.132812 290.539062 194.34375 C 292.226562 193.824219 294.171875 193.355469 296.394531 192.957031 C 295.792969 192.265625 295.316406 191.457031 294.980469 190.527344 C 294.625 189.554688 294.421875 188.457031 294.359375 187.234375 C 293.554688 186.882812 292.992188 186.082031 292.992188 185.148438 C 292.992188 183.886719 294.015625 182.867188 295.277344 182.867188 C 296.542969 182.867188 297.566406 183.886719 297.566406 185.148438 C 297.566406 186.113281 296.964844 186.929688 296.121094 187.265625 C 296.175781 188.261719 296.347656 189.152344 296.636719 189.929688 C 297.042969 191.035156 297.691406 191.929688 298.582031 192.601562 C 300.476562 192.3125 302.539062 192.0625 304.769531 191.851562 C 309.835938 190.535156 313.488281 188.542969 315.722656 185.855469 C 317.542969 183.675781 318.429688 181.003906 318.390625 177.851562 C 317.488281 177.546875 316.832031 176.699219 316.832031 175.6875 C 316.832031 174.425781 317.855469 173.40625 319.117188 173.40625 C 320.382812 173.40625 321.40625 174.425781 321.40625 175.6875 C 321.40625 176.574219 320.898438 177.34375 320.148438 177.71875 C 320.21875 181.339844 319.195312 184.425781 317.074219 186.96875 C 314.800781 189.703125 311.273438 191.773438 306.503906 193.183594 C 307.082031 193.933594 307.574219 194.734375 307.980469 195.589844 C 308.292969 196.253906 308.542969 196.9375 308.746094 197.664062 C 309.796875 197.863281 310.59375 198.792969 310.59375 199.898438 C 310.59375 200.488281 310.367188 201.027344 310 201.421875 Z M 290.375 150.496094 C 290.398438 150.496094 290.414062 150.496094 290.4375 150.496094 Z M 290.375 150.496094 " clip-rule="evenodd"/></clipPath><linearGradient x1="102.486175" gradientTransform="matrix(0.780597, 0, 0, 0.778735, 246.514969, 149.894726)" y1="-5.658649" x2="37.613232" gradientUnits="userSpaceOnUse" y2="116.366302" xlink:type="simple" xlink:actuate="onLoad" id="id3" xlink:show="other"><stop stop-opacity="1" stop-color="rgb(100%, 39.99939%, 76.899719%)" offset="0"/><stop stop-opacity="1" stop-color="rgb(99.827576%, 39.979553%, 76.882935%)" offset="0.0625"/><stop stop-opacity="1" stop-color="rgb(99.102783%, 39.900208%, 76.817322%)" offset="0.0664062"/><stop stop-opacity="1" stop-color="rgb(98.551941%, 39.840698%, 76.766968%)" offset="0.0703125"/><stop stop-opacity="1" stop-color="rgb(97.999573%, 39.779663%, 76.716614%)" offset="0.0742188"/><stop stop-opacity="1" stop-color="rgb(97.44873%, 39.718628%, 76.667786%)" offset="0.078125"/><stop stop-opacity="1" stop-color="rgb(96.897888%, 39.657593%, 76.617432%)" offset="0.0820313"/><stop stop-opacity="1" stop-color="rgb(96.347046%, 39.598083%, 76.567078%)" offset="0.0859375"/><stop stop-opacity="1" stop-color="rgb(95.794678%, 39.537048%, 76.516724%)" offset="0.0898438"/><stop stop-opacity="1" stop-color="rgb(95.243835%, 39.476013%, 76.46637%)" offset="0.09375"/><stop stop-opacity="1" stop-color="rgb(94.691467%, 39.414978%, 76.416016%)" offset="0.0976563"/><stop stop-opacity="1" stop-color="rgb(94.140625%, 39.355469%, 76.365662%)" offset="0.101562"/><stop stop-opacity="1" stop-color="rgb(93.589783%, 39.294434%, 76.315308%)" offset="0.105469"/><stop stop-opacity="1" stop-color="rgb(93.03894%, 39.233398%, 76.266479%)" offset="0.109375"/><stop stop-opacity="1" stop-color="rgb(92.486572%, 39.172363%, 76.216125%)" offset="0.113281"/><stop stop-opacity="1" stop-color="rgb(91.93573%, 39.112854%, 76.165771%)" offset="0.117188"/><stop stop-opacity="1" stop-color="rgb(91.383362%, 39.051819%, 76.115417%)" offset="0.121094"/><stop stop-opacity="1" stop-color="rgb(90.83252%, 38.990784%, 76.065063%)" offset="0.125"/><stop stop-opacity="1" stop-color="rgb(90.280151%, 38.929749%, 76.014709%)" offset="0.128906"/><stop stop-opacity="1" stop-color="rgb(89.729309%, 38.870239%, 75.964355%)" offset="0.132812"/><stop stop-opacity="1" stop-color="rgb(89.178467%, 38.809204%, 75.914001%)" offset="0.136719"/><stop stop-opacity="1" stop-color="rgb(88.627625%, 38.748169%, 75.863647%)" offset="0.140625"/><stop stop-opacity="1" stop-color="rgb(88.075256%, 38.687134%, 75.813293%)" offset="0.144531"/><stop stop-opacity="1" stop-color="rgb(87.524414%, 38.627625%, 75.764465%)" offset="0.148438"/><stop stop-opacity="1" stop-color="rgb(86.972046%, 38.566589%, 75.714111%)" offset="0.152344"/><stop stop-opacity="1" stop-color="rgb(86.421204%, 38.505554%, 75.663757%)" offset="0.15625"/><stop stop-opacity="1" stop-color="rgb(85.870361%, 38.444519%, 75.613403%)" offset="0.160156"/><stop stop-opacity="1" stop-color="rgb(85.319519%, 38.38501%, 75.563049%)" offset="0.164062"/><stop stop-opacity="1" stop-color="rgb(84.767151%, 38.323975%, 75.512695%)" offset="0.167969"/><stop stop-opacity="1" stop-color="rgb(84.216309%, 38.262939%, 75.462341%)" offset="0.171875"/><stop stop-opacity="1" stop-color="rgb(83.66394%, 38.201904%, 75.411987%)" offset="0.175781"/><stop stop-opacity="1" stop-color="rgb(83.113098%, 38.142395%, 75.363159%)" offset="0.179688"/><stop stop-opacity="1" stop-color="rgb(82.562256%, 38.08136%, 75.312805%)" offset="0.183594"/><stop stop-opacity="1" stop-color="rgb(82.011414%, 38.020325%, 75.262451%)" offset="0.1875"/><stop stop-opacity="1" stop-color="rgb(81.459045%, 37.95929%, 75.212097%)" offset="0.191406"/><stop stop-opacity="1" stop-color="rgb(80.908203%, 37.89978%, 75.161743%)" offset="0.195312"/><stop stop-opacity="1" stop-color="rgb(80.355835%, 37.838745%, 75.111389%)" offset="0.199219"/><stop stop-opacity="1" stop-color="rgb(79.804993%, 37.77771%, 75.061035%)" offset="0.203125"/><stop stop-opacity="1" stop-color="rgb(79.25415%, 37.716675%, 75.010681%)" offset="0.207031"/><stop stop-opacity="1" stop-color="rgb(78.703308%, 37.657166%, 74.961853%)" offset="0.210938"/><stop stop-opacity="1" stop-color="rgb(78.15094%, 37.59613%, 74.911499%)" offset="0.214844"/><stop stop-opacity="1" stop-color="rgb(77.600098%, 37.535095%, 74.861145%)" offset="0.21875"/><stop stop-opacity="1" stop-color="rgb(77.047729%, 37.47406%, 74.810791%)" offset="0.222656"/><stop stop-opacity="1" stop-color="rgb(76.496887%, 37.414551%, 74.760437%)" offset="0.226562"/><stop stop-opacity="1" stop-color="rgb(75.944519%, 37.353516%, 74.710083%)" offset="0.230469"/><stop stop-opacity="1" stop-color="rgb(75.393677%, 37.29248%, 74.659729%)" offset="0.234375"/><stop stop-opacity="1" stop-color="rgb(74.842834%, 37.231445%, 74.609375%)" offset="0.238281"/><stop stop-opacity="1" stop-color="rgb(74.291992%, 37.171936%, 74.560547%)" offset="0.242188"/><stop stop-opacity="1" stop-color="rgb(73.739624%, 37.110901%, 74.510193%)" offset="0.246094"/><stop stop-opacity="1" stop-color="rgb(73.188782%, 37.049866%, 74.459839%)" offset="0.25"/><stop stop-opacity="1" stop-color="rgb(72.636414%, 36.988831%, 74.409485%)" offset="0.253906"/><stop stop-opacity="1" stop-color="rgb(72.085571%, 36.929321%, 74.359131%)" offset="0.257812"/><stop stop-opacity="1" stop-color="rgb(71.534729%, 36.868286%, 74.308777%)" offset="0.261719"/><stop stop-opacity="1" stop-color="rgb(70.983887%, 36.807251%, 74.258423%)" offset="0.265625"/><stop stop-opacity="1" stop-color="rgb(70.431519%, 36.746216%, 74.208069%)" offset="0.269531"/><stop stop-opacity="1" stop-color="rgb(69.880676%, 36.686707%, 74.157715%)" offset="0.273438"/><stop stop-opacity="1" stop-color="rgb(69.328308%, 36.625671%, 74.107361%)" offset="0.277344"/><stop stop-opacity="1" stop-color="rgb(68.777466%, 36.564636%, 74.058533%)" offset="0.28125"/><stop stop-opacity="1" stop-color="rgb(68.226624%, 36.503601%, 74.008179%)" offset="0.285156"/><stop stop-opacity="1" stop-color="rgb(67.675781%, 36.444092%, 73.957825%)" offset="0.289062"/><stop stop-opacity="1" stop-color="rgb(67.123413%, 36.383057%, 73.907471%)" offset="0.292969"/><stop stop-opacity="1" stop-color="rgb(66.572571%, 36.322021%, 73.857117%)" offset="0.296875"/><stop stop-opacity="1" stop-color="rgb(66.020203%, 36.260986%, 73.806763%)" offset="0.300781"/><stop stop-opacity="1" stop-color="rgb(65.46936%, 36.201477%, 73.756409%)" offset="0.304688"/><stop stop-opacity="1" stop-color="rgb(64.916992%, 36.140442%, 73.706055%)" offset="0.308594"/><stop stop-opacity="1" stop-color="rgb(64.36615%, 36.079407%, 73.657227%)" offset="0.3125"/><stop stop-opacity="1" stop-color="rgb(63.815308%, 36.018372%, 73.606873%)" offset="0.316406"/><stop stop-opacity="1" stop-color="rgb(63.264465%, 35.958862%, 73.556519%)" offset="0.320312"/><stop stop-opacity="1" stop-color="rgb(62.712097%, 35.897827%, 73.506165%)" offset="0.324219"/><stop stop-opacity="1" stop-color="rgb(62.161255%, 35.836792%, 73.455811%)" offset="0.328125"/><stop stop-opacity="1" stop-color="rgb(61.608887%, 35.775757%, 73.405457%)" offset="0.332031"/><stop stop-opacity="1" stop-color="rgb(61.058044%, 35.716248%, 73.355103%)" offset="0.335938"/><stop stop-opacity="1" stop-color="rgb(60.507202%, 35.655212%, 73.304749%)" offset="0.339844"/><stop stop-opacity="1" stop-color="rgb(59.95636%, 35.594177%, 73.25592%)" offset="0.34375"/><stop stop-opacity="1" stop-color="rgb(59.403992%, 35.533142%, 73.205566%)" offset="0.347656"/><stop stop-opacity="1" stop-color="rgb(58.853149%, 35.473633%, 73.155212%)" offset="0.351562"/><stop stop-opacity="1" stop-color="rgb(58.300781%, 35.412598%, 73.104858%)" offset="0.355469"/><stop stop-opacity="1" stop-color="rgb(57.749939%, 35.351562%, 73.054504%)" offset="0.359375"/><stop stop-opacity="1" stop-color="rgb(57.199097%, 35.290527%, 73.00415%)" offset="0.363281"/><stop stop-opacity="1" stop-color="rgb(56.648254%, 35.231018%, 72.953796%)" offset="0.367188"/><stop stop-opacity="1" stop-color="rgb(56.095886%, 35.169983%, 72.903442%)" offset="0.371094"/><stop stop-opacity="1" stop-color="rgb(55.545044%, 35.108948%, 72.854614%)" offset="0.375"/><stop stop-opacity="1" stop-color="rgb(54.992676%, 35.047913%, 72.80426%)" offset="0.378906"/><stop stop-opacity="1" stop-color="rgb(54.441833%, 34.988403%, 72.753906%)" offset="0.382812"/><stop stop-opacity="1" stop-color="rgb(53.890991%, 34.927368%, 72.703552%)" offset="0.386719"/><stop stop-opacity="1" stop-color="rgb(53.340149%, 34.866333%, 72.653198%)" offset="0.390625"/><stop stop-opacity="1" stop-color="rgb(52.787781%, 34.805298%, 72.602844%)" offset="0.394531"/><stop stop-opacity="1" stop-color="rgb(52.236938%, 34.745789%, 72.55249%)" offset="0.398438"/><stop stop-opacity="1" stop-color="rgb(51.68457%, 34.684753%, 72.502136%)" offset="0.402344"/><stop stop-opacity="1" stop-color="rgb(51.133728%, 34.623718%, 72.451782%)" offset="0.40625"/><stop stop-opacity="1" stop-color="rgb(50.58136%, 34.562683%, 72.401428%)" offset="0.410156"/><stop stop-opacity="1" stop-color="rgb(50.030518%, 34.503174%, 72.3526%)" offset="0.414062"/><stop stop-opacity="1" stop-color="rgb(49.479675%, 34.442139%, 72.302246%)" offset="0.417969"/><stop stop-opacity="1" stop-color="rgb(48.928833%, 34.381104%, 72.251892%)" offset="0.421875"/><stop stop-opacity="1" stop-color="rgb(48.376465%, 34.320068%, 72.201538%)" offset="0.425781"/><stop stop-opacity="1" stop-color="rgb(47.825623%, 34.260559%, 72.151184%)" offset="0.429687"/><stop stop-opacity="1" stop-color="rgb(47.273254%, 34.199524%, 72.10083%)" offset="0.433594"/><stop stop-opacity="1" stop-color="rgb(46.722412%, 34.138489%, 72.050476%)" offset="0.4375"/><stop stop-opacity="1" stop-color="rgb(46.17157%, 34.077454%, 72.000122%)" offset="0.441406"/><stop stop-opacity="1" stop-color="rgb(45.620728%, 34.017944%, 71.951294%)" offset="0.445312"/><stop stop-opacity="1" stop-color="rgb(45.068359%, 33.956909%, 71.90094%)" offset="0.449219"/><stop stop-opacity="1" stop-color="rgb(44.517517%, 33.895874%, 71.850586%)" offset="0.453125"/><stop stop-opacity="1" stop-color="rgb(43.965149%, 33.834839%, 71.800232%)" offset="0.457031"/><stop stop-opacity="1" stop-color="rgb(43.414307%, 33.77533%, 71.749878%)" offset="0.460938"/><stop stop-opacity="1" stop-color="rgb(42.863464%, 33.714294%, 71.699524%)" offset="0.464844"/><stop stop-opacity="1" stop-color="rgb(42.312622%, 33.653259%, 71.64917%)" offset="0.46875"/><stop stop-opacity="1" stop-color="rgb(41.760254%, 33.592224%, 71.598816%)" offset="0.472656"/><stop stop-opacity="1" stop-color="rgb(41.209412%, 33.532715%, 71.549988%)" offset="0.476562"/><stop stop-opacity="1" stop-color="rgb(40.657043%, 33.47168%, 71.499634%)" offset="0.480469"/><stop stop-opacity="1" stop-color="rgb(40.106201%, 33.410645%, 71.44928%)" offset="0.484375"/><stop stop-opacity="1" stop-color="rgb(39.555359%, 33.349609%, 71.398926%)" offset="0.488281"/><stop stop-opacity="1" stop-color="rgb(39.004517%, 33.2901%, 71.348572%)" offset="0.492188"/><stop stop-opacity="1" stop-color="rgb(38.452148%, 33.229065%, 71.298218%)" offset="0.496094"/><stop stop-opacity="1" stop-color="rgb(37.901306%, 33.16803%, 71.247864%)" offset="0.5"/><stop stop-opacity="1" stop-color="rgb(37.348938%, 33.106995%, 71.19751%)" offset="0.503906"/><stop stop-opacity="1" stop-color="rgb(36.798096%, 33.047485%, 71.148682%)" offset="0.507812"/><stop stop-opacity="1" stop-color="rgb(36.245728%, 32.98645%, 71.098328%)" offset="0.511719"/><stop stop-opacity="1" stop-color="rgb(35.694885%, 32.925415%, 71.047974%)" offset="0.515625"/><stop stop-opacity="1" stop-color="rgb(35.144043%, 32.86438%, 70.99762%)" offset="0.519531"/><stop stop-opacity="1" stop-color="rgb(34.593201%, 32.804871%, 70.947266%)" offset="0.523438"/><stop stop-opacity="1" stop-color="rgb(34.040833%, 32.743835%, 70.896912%)" offset="0.527344"/><stop stop-opacity="1" stop-color="rgb(33.48999%, 32.6828%, 70.846558%)" offset="0.53125"/><stop stop-opacity="1" stop-color="rgb(32.937622%, 32.621765%, 70.796204%)" offset="0.535156"/><stop stop-opacity="1" stop-color="rgb(32.38678%, 32.562256%, 70.74585%)" offset="0.539062"/><stop stop-opacity="1" stop-color="rgb(31.835938%, 32.501221%, 70.695496%)" offset="0.542969"/><stop stop-opacity="1" stop-color="rgb(31.285095%, 32.440186%, 70.646667%)" offset="0.546875"/><stop stop-opacity="1" stop-color="rgb(30.732727%, 32.37915%, 70.596313%)" offset="0.550781"/><stop stop-opacity="1" stop-color="rgb(30.181885%, 32.319641%, 70.545959%)" offset="0.554688"/><stop stop-opacity="1" stop-color="rgb(29.629517%, 32.258606%, 70.495605%)" offset="0.558594"/><stop stop-opacity="1" stop-color="rgb(29.078674%, 32.197571%, 70.445251%)" offset="0.5625"/><stop stop-opacity="1" stop-color="rgb(28.527832%, 32.136536%, 70.394897%)" offset="0.566406"/><stop stop-opacity="1" stop-color="rgb(27.97699%, 32.077026%, 70.344543%)" offset="0.570312"/><stop stop-opacity="1" stop-color="rgb(27.424622%, 32.015991%, 70.294189%)" offset="0.574219"/><stop stop-opacity="1" stop-color="rgb(26.873779%, 31.954956%, 70.245361%)" offset="0.578125"/><stop stop-opacity="1" stop-color="rgb(26.321411%, 31.893921%, 70.195007%)" offset="0.582031"/><stop stop-opacity="1" stop-color="rgb(25.770569%, 31.834412%, 70.144653%)" offset="0.585938"/><stop stop-opacity="1" stop-color="rgb(25.219727%, 31.773376%, 70.094299%)" offset="0.589844"/><stop stop-opacity="1" stop-color="rgb(24.668884%, 31.712341%, 70.043945%)" offset="0.59375"/><stop stop-opacity="1" stop-color="rgb(24.116516%, 31.651306%, 69.993591%)" offset="0.597656"/><stop stop-opacity="1" stop-color="rgb(23.565674%, 31.591797%, 69.943237%)" offset="0.601563"/><stop stop-opacity="1" stop-color="rgb(23.013306%, 31.530762%, 69.892883%)" offset="0.605469"/><stop stop-opacity="1" stop-color="rgb(22.462463%, 31.469727%, 69.844055%)" offset="0.609375"/><stop stop-opacity="1" stop-color="rgb(21.910095%, 31.408691%, 69.793701%)" offset="0.613281"/><stop stop-opacity="1" stop-color="rgb(21.359253%, 31.349182%, 69.743347%)" offset="0.617188"/><stop stop-opacity="1" stop-color="rgb(20.808411%, 31.288147%, 69.692993%)" offset="0.621094"/><stop stop-opacity="1" stop-color="rgb(20.257568%, 31.227112%, 69.642639%)" offset="0.625"/><stop stop-opacity="1" stop-color="rgb(19.7052%, 31.166077%, 69.592285%)" offset="0.628906"/><stop stop-opacity="1" stop-color="rgb(19.154358%, 31.106567%, 69.541931%)" offset="0.632812"/><stop stop-opacity="1" stop-color="rgb(18.60199%, 31.045532%, 69.491577%)" offset="0.636719"/><stop stop-opacity="1" stop-color="rgb(18.051147%, 30.984497%, 69.442749%)" offset="0.640625"/><stop stop-opacity="1" stop-color="rgb(17.500305%, 30.923462%, 69.392395%)" offset="0.644531"/><stop stop-opacity="1" stop-color="rgb(16.949463%, 30.863953%, 69.342041%)" offset="0.648437"/><stop stop-opacity="1" stop-color="rgb(16.397095%, 30.802917%, 69.291687%)" offset="0.652344"/><stop stop-opacity="1" stop-color="rgb(15.846252%, 30.741882%, 69.241333%)" offset="0.65625"/><stop stop-opacity="1" stop-color="rgb(15.293884%, 30.680847%, 69.190979%)" offset="0.660156"/><stop stop-opacity="1" stop-color="rgb(14.743042%, 30.621338%, 69.140625%)" offset="0.664062"/><stop stop-opacity="1" stop-color="rgb(14.1922%, 30.560303%, 69.090271%)" offset="0.667969"/><stop stop-opacity="1" stop-color="rgb(13.641357%, 30.499268%, 69.039917%)" offset="0.671875"/><stop stop-opacity="1" stop-color="rgb(13.088989%, 30.438232%, 68.989563%)" offset="0.675781"/><stop stop-opacity="1" stop-color="rgb(12.538147%, 30.378723%, 68.940735%)" offset="0.679688"/><stop stop-opacity="1" stop-color="rgb(11.985779%, 30.317688%, 68.890381%)" offset="0.683594"/><stop stop-opacity="1" stop-color="rgb(11.434937%, 30.256653%, 68.840027%)" offset="0.6875"/><stop stop-opacity="1" stop-color="rgb(10.884094%, 30.195618%, 68.789673%)" offset="0.691406"/><stop stop-opacity="1" stop-color="rgb(10.333252%, 30.136108%, 68.739319%)" offset="0.695312"/><stop stop-opacity="1" stop-color="rgb(9.780884%, 30.075073%, 68.688965%)" offset="0.699219"/><stop stop-opacity="1" stop-color="rgb(9.230042%, 30.014038%, 68.638611%)" offset="0.703125"/><stop stop-opacity="1" stop-color="rgb(8.677673%, 29.953003%, 68.588257%)" offset="0.707031"/><stop stop-opacity="1" stop-color="rgb(8.126831%, 29.893494%, 68.539429%)" offset="0.710938"/><stop stop-opacity="1" stop-color="rgb(7.574463%, 29.832458%, 68.489075%)" offset="0.714844"/><stop stop-opacity="1" stop-color="rgb(7.023621%, 29.771423%, 68.438721%)" offset="0.71875"/><stop stop-opacity="1" stop-color="rgb(6.472778%, 29.710388%, 68.388367%)" offset="0.722656"/><stop stop-opacity="1" stop-color="rgb(5.921936%, 29.650879%, 68.338013%)" offset="0.726562"/><stop stop-opacity="1" stop-color="rgb(5.369568%, 29.589844%, 68.287659%)" offset="0.730469"/><stop stop-opacity="1" stop-color="rgb(4.818726%, 29.528809%, 68.237305%)" offset="0.734375"/><stop stop-opacity="1" stop-color="rgb(4.266357%, 29.467773%, 68.186951%)" offset="0.738281"/><stop stop-opacity="1" stop-color="rgb(3.715515%, 29.408264%, 68.138123%)" offset="0.742188"/><stop stop-opacity="1" stop-color="rgb(3.164673%, 29.347229%, 68.087769%)" offset="0.746094"/><stop stop-opacity="1" stop-color="rgb(2.613831%, 29.286194%, 68.037415%)" offset="0.75"/><stop stop-opacity="1" stop-color="rgb(2.061462%, 29.225159%, 67.987061%)" offset="0.753906"/><stop stop-opacity="1" stop-color="rgb(1.51062%, 29.165649%, 67.936707%)" offset="0.757812"/><stop stop-opacity="1" stop-color="rgb(0.958252%, 29.104614%, 67.886353%)" offset="0.761719"/><stop stop-opacity="1" stop-color="rgb(0.40741%, 29.043579%, 67.835999%)" offset="0.765625"/><stop stop-opacity="1" stop-color="rgb(0.202942%, 29.020691%, 67.817688%)" offset="0.769531"/><stop stop-opacity="1" stop-color="rgb(0%, 28.999329%, 67.799377%)" offset="0.773438"/><stop stop-opacity="1" stop-color="rgb(0%, 28.999329%, 67.799377%)" offset="0.78125"/><stop stop-opacity="1" stop-color="rgb(0%, 28.999329%, 67.799377%)" offset="0.8125"/><stop stop-opacity="1" stop-color="rgb(0%, 28.999329%, 67.799377%)" offset="0.875"/><stop stop-opacity="1" stop-color="rgb(0%, 28.999329%, 67.799377%)" offset="1"/></linearGradient></defs><g clip-path="url(#id1)"><g clip-path="url(#id2)"><path fill="url(#id3)" d="M 246.425781 149.894531 L 246.425781 224.894531 L 334.824219 224.894531 L 334.824219 149.894531 Z M 246.425781 149.894531 " fill-rule="nonzero"/></g></g><g fill="rgb(45.098877%, 45.098877%, 45.098877%)" fill-opacity="1"><g transform="translate(69.132195, 200.624987)"><g><path d="M 24.464844 -3.207031 C 24.464844 -4.960938 22.859375 -6.316406 21.054688 -6.316406 L 10.175781 -6.316406 L 10.175781 -32.585938 C 10.175781 -34.289062 8.570312 -35.792969 6.667969 -35.792969 C 4.710938 -35.792969 3.15625 -34.289062 3.15625 -32.585938 L 3.15625 -3.457031 C 3.15625 -1.503906 4.914062 0 6.917969 0 L 21.054688 0 C 22.960938 0 24.464844 -1.402344 24.464844 -3.207031 Z M 24.464844 -3.207031 "/></g></g></g><g fill="rgb(45.098877%, 45.098877%, 45.098877%)" fill-opacity="1"><g transform="translate(93.340438, 200.624987)"><g><path d="M 13.035156 -9.574219 C 19.800781 -9.574219 22.757812 -12.382812 22.757812 -17.195312 C 22.757812 -22.257812 19.5 -25.714844 12.933594 -25.714844 C 5.964844 -25.714844 2.253906 -21.855469 2.253906 -16.792969 L 2.253906 -8.421875 C 2.253906 -3.457031 6.066406 0.351562 12.683594 0.351562 C 15.890625 0.351562 22.308594 -0.550781 22.308594 -4.058594 C 22.308594 -5.214844 21.605469 -6.816406 19.199219 -6.816406 C 18.347656 -6.816406 17.894531 -6.617188 17.695312 -6.515625 C 16.089844 -5.816406 14.789062 -5.414062 13.183594 -5.414062 C 10.476562 -5.414062 9.171875 -6.515625 9.171875 -8.222656 L 9.171875 -9.875 C 10.628906 -9.675781 11.730469 -9.574219 13.035156 -9.574219 Z M 15.890625 -17.546875 C 15.890625 -15.390625 14.6875 -14.738281 12.78125 -14.738281 C 12.28125 -14.738281 10.777344 -14.789062 9.171875 -14.9375 L 9.171875 -17.09375 C 9.171875 -19.097656 10.476562 -20.351562 12.882812 -20.351562 C 14.839844 -20.351562 15.890625 -19.550781 15.890625 -17.546875 Z M 15.890625 -17.546875 "/></g></g></g><g fill="rgb(45.098877%, 45.098877%, 45.098877%)" fill-opacity="1"><g transform="translate(116.64651, 200.624987)"><g><path d="M 22.558594 -15.339844 C 22.558594 -22.105469 19.601562 -25.714844 12.332031 -25.714844 C 8.171875 -25.714844 3.757812 -24.511719 3.757812 -21.554688 C 3.757812 -20.300781 4.5625 -18.648438 6.667969 -18.648438 C 7.621094 -18.648438 8.171875 -19 8.570312 -19.148438 C 9.574219 -19.601562 10.425781 -19.953125 11.832031 -19.953125 C 14.386719 -19.953125 15.640625 -18.847656 15.640625 -16.492188 L 15.640625 -14.886719 C 14.335938 -15.289062 13.035156 -15.390625 11.679688 -15.390625 C 5.0625 -15.390625 1.753906 -12.832031 1.753906 -7.71875 L 1.753906 -7.570312 C 1.753906 -2.808594 4.863281 0.351562 10.675781 0.351562 C 13.484375 0.351562 15.589844 -0.402344 17.445312 -1.90625 C 18.597656 -0.300781 19.851562 0.199219 21.707031 0.199219 C 24.363281 0.199219 25.316406 -0.800781 25.316406 -2.40625 C 25.316406 -3.457031 24.914062 -4.011719 24.164062 -4.3125 C 23.308594 -4.660156 22.558594 -4.511719 22.558594 -6.015625 Z M 12.082031 -10.527344 C 13.082031 -10.527344 14.386719 -10.375 15.640625 -10.125 L 15.640625 -6.515625 C 14.335938 -5.515625 13.035156 -5.214844 11.730469 -5.214844 C 9.574219 -5.214844 8.621094 -5.863281 8.621094 -7.519531 L 8.621094 -7.667969 C 8.621094 -9.171875 9.171875 -10.527344 12.082031 -10.527344 Z M 12.082031 -10.527344 "/></g></g></g><g fill="rgb(45.098877%, 45.098877%, 45.098877%)" fill-opacity="1"><g transform="translate(141.807047, 200.624987)"><g><path d="M 14.988281 -19.351562 C 16.894531 -19.25 18.496094 -20.554688 18.496094 -22.507812 C 18.496094 -24.210938 17.546875 -25.515625 14.386719 -25.515625 C 12.78125 -25.515625 10.476562 -24.714844 8.171875 -23.359375 C 7.46875 -24.261719 6.566406 -24.914062 5.515625 -24.914062 C 3.710938 -24.914062 2.105469 -23.710938 2.105469 -21.90625 C 2.105469 -21.15625 2.40625 -20.753906 2.808594 -20.253906 C 3.207031 -19.652344 3.359375 -19.050781 3.359375 -17.894531 L 3.359375 -2.757812 C 3.359375 -1.003906 4.863281 0.351562 6.816406 0.351562 C 8.773438 0.351562 10.277344 -1.003906 10.277344 -2.757812 L 10.277344 -17.894531 C 10.277344 -18.195312 10.226562 -18.496094 10.175781 -18.847656 C 11.929688 -19.550781 12.832031 -19.449219 14.988281 -19.351562 Z M 14.988281 -19.351562 "/></g></g></g><g fill="rgb(45.098877%, 45.098877%, 45.098877%)" fill-opacity="1"><g transform="translate(159.70005, 200.624987)"><g><path d="M 10.277344 -17.894531 C 10.277344 -18.195312 10.226562 -18.496094 10.175781 -18.847656 C 11.730469 -19.550781 12.984375 -19.902344 14.035156 -19.902344 C 16.042969 -19.902344 17.292969 -18.347656 17.292969 -15.839844 L 17.292969 -2.757812 C 17.292969 -1.050781 18.546875 0.300781 20.753906 0.300781 C 22.960938 0.300781 24.210938 -1.050781 24.210938 -2.757812 L 24.210938 -15.839844 C 24.210938 -21.707031 21.054688 -25.617188 14.738281 -25.617188 C 12.734375 -25.617188 10.375 -24.964844 8.121094 -23.460938 C 7.417969 -24.363281 6.515625 -24.914062 5.464844 -24.914062 C 3.558594 -24.914062 2.105469 -23.660156 2.105469 -22.007812 C 2.105469 -21.355469 2.253906 -21.003906 2.957031 -20.050781 C 3.15625 -19.75 3.359375 -19.601562 3.359375 -17.945312 L 3.359375 -2.757812 C 3.359375 -1.050781 4.511719 0.300781 6.816406 0.300781 C 9.125 0.300781 10.277344 -1.050781 10.277344 -2.757812 Z M 10.277344 -17.894531 "/></g></g></g><g fill="rgb(45.098877%, 45.098877%, 45.098877%)" fill-opacity="1"><g transform="translate(186.213863, 200.624987)"><g><path d="M 11.027344 -32.285156 C 11.027344 -34.1875 9.324219 -35.792969 7.117188 -35.792969 C 4.914062 -35.792969 3.207031 -34.238281 3.207031 -32.285156 C 3.207031 -30.378906 4.914062 -28.773438 7.117188 -28.773438 C 9.324219 -28.773438 11.027344 -30.328125 11.027344 -32.285156 Z M 10.578125 -22.507812 C 10.578125 -24.164062 9.074219 -25.566406 7.117188 -25.566406 C 5.164062 -25.566406 3.660156 -24.164062 3.660156 -22.507812 L 3.660156 -2.757812 C 3.660156 -1.003906 5.164062 0.351562 7.117188 0.351562 C 9.074219 0.351562 10.578125 -1.003906 10.578125 -2.757812 Z M 10.578125 -22.507812 "/></g></g></g><g fill="rgb(45.098877%, 45.098877%, 45.098877%)" fill-opacity="1"><g transform="translate(199.495737, 200.624987)"><g><path d="M 3.207031 -2.808594 C 3.207031 -1.101562 4.460938 0.199219 6.667969 0.199219 C 8.871094 0.199219 10.125 -1.101562 10.125 -2.808594 L 10.125 -18.347656 L 13.835938 -18.347656 C 15.691406 -18.347656 17.144531 -19.601562 17.144531 -21.304688 C 17.144531 -23.007812 15.691406 -24.3125 13.835938 -24.3125 L 10.125 -24.3125 L 10.125 -26.769531 C 10.125 -28.574219 11.078125 -30.128906 13.183594 -30.128906 C 14.136719 -30.128906 15.1875 -29.828125 16.140625 -29.828125 C 17.945312 -29.828125 19.550781 -30.929688 19.550781 -32.835938 C 19.550781 -36.144531 14.738281 -36.195312 13.433594 -36.195312 C 7.871094 -36.09375 3.207031 -33.035156 3.207031 -26.417969 Z M 3.207031 -2.808594 "/></g></g></g><g fill="rgb(45.098877%, 45.098877%, 45.098877%)" fill-opacity="1"><g transform="translate(216.987767, 200.624987)"><g><path d="M 13.585938 -15.039062 C 12.984375 -13.234375 12.632812 -11.128906 12.179688 -9.273438 C 11.628906 -11.128906 11.277344 -13.234375 10.578125 -15.039062 L 7.417969 -23.460938 C 6.867188 -24.863281 5.613281 -25.566406 4.261719 -25.566406 C 2.304688 -25.566406 0.800781 -24.3125 0.800781 -22.609375 C 0.800781 -22.308594 0.851562 -21.855469 1.050781 -21.355469 L 8.773438 -1.453125 C 7.570312 2.457031 6.464844 4.058594 4.261719 4.160156 C 2.207031 4.261719 0.953125 5.664062 0.953125 7.167969 C 0.953125 8.921875 2.457031 10.175781 4.460938 10.175781 C 12.082031 10.175781 13.984375 4.359375 16.742188 -3.757812 L 22.859375 -21.605469 C 22.960938 -21.855469 23.007812 -22.15625 23.007812 -22.507812 C 23.007812 -24.3125 21.304688 -25.566406 19.550781 -25.566406 C 18.195312 -25.566406 16.742188 -24.914062 16.292969 -23.460938 Z M 13.585938 -15.039062 "/></g></g></g></svg>