<svg width="157" height="33" xmlns="http://www.w3.org/2000/svg" xmlns:xlink="http://www.w3.org/1999/xlink" width="500" zoomAndPan="magnify" viewBox="0 0 375 374.999991" height="500" preserveAspectRatio="xMidYMid meet" version="1.0"><defs><g/><clipPath id="id1"><path d="M 133 109.667969 L 241.707031 109.667969 L 241.707031 202.667969 L 133 202.667969 Z M 133 109.667969 " clip-rule="nonzero"/></clipPath><clipPath id="id2"><path d="M 237.46875 168.613281 L 237.601562 168.535156 C 237.554688 168.5625 237.515625 168.582031 237.46875 168.613281 Z M 210.886719 202.449219 C 211.492188 199.085938 208.710938 188.457031 206.128906 186.832031 C 205.824219 186.640625 205.523438 186.464844 205.238281 186.3125 C 215.980469 187.800781 231.019531 179.261719 230.425781 170.832031 C 233.1875 170.28125 235.605469 169.605469 237.457031 168.613281 C 237.9375 168.417969 238.378906 168.140625 238.773438 167.78125 C 240 166.679688 240.824219 164.867188 241.246094 162.539062 C 241.46875 161.351562 241.574219 160.027344 241.582031 158.609375 C 238.550781 161.023438 235.335938 163 231.921875 164.546875 C 228.363281 166.160156 224.605469 167.308594 220.632812 167.984375 C 220.324219 169.199219 219.222656 170.109375 217.917969 170.109375 C 216.363281 170.109375 215.109375 168.84375 215.109375 167.28125 C 215.109375 165.714844 216.363281 164.449219 217.917969 164.449219 C 218.945312 164.449219 219.847656 165 220.335938 165.832031 C 224.105469 165.183594 227.671875 164.09375 231.050781 162.558594 C 231.367188 162.414062 231.683594 162.269531 232 162.113281 C 232.441406 160.039062 232.46875 158.144531 232.113281 156.425781 C 231.902344 155.410156 231.546875 154.457031 231.050781 153.558594 C 230.839844 153.605469 230.628906 153.636719 230.398438 153.636719 C 228.84375 153.636719 227.585938 152.371094 227.585938 150.804688 C 227.585938 149.242188 228.84375 147.976562 230.398438 147.976562 C 231.953125 147.976562 233.207031 149.242188 233.207031 150.804688 C 233.207031 151.335938 233.0625 151.839844 232.804688 152.273438 C 233.476562 153.421875 233.945312 154.660156 234.226562 155.980469 C 234.542969 157.507812 234.597656 159.128906 234.386719 160.867188 C 236.871094 159.46875 239.230469 157.808594 241.484375 155.886719 C 241.21875 152.429688 240.410156 148.535156 239.070312 144.511719 C 237.6875 140.367188 238.761719 139.132812 232.183594 133.414062 C 229.984375 131.511719 229.910156 127.117188 227.941406 124.859375 C 224.382812 120.773438 220.113281 117.171875 215.128906 114.507812 C 214.371094 119.460938 212.539062 123.277344 209.628906 125.929688 C 209.601562 125.960938 209.5625 125.988281 209.535156 126.019531 C 211.078125 128.527344 211.953125 130.921875 212.152344 133.210938 C 212.308594 134.910156 212.085938 136.535156 211.5 138.089844 C 211.914062 138.582031 212.164062 139.21875 212.164062 139.914062 C 212.164062 141.476562 210.90625 142.742188 209.351562 142.742188 C 207.796875 142.742188 206.542969 141.476562 206.542969 139.914062 C 206.542969 138.347656 207.796875 137.085938 209.351562 137.085938 C 209.417969 137.085938 209.488281 137.085938 209.554688 137.09375 C 209.957031 135.90625 210.109375 134.679688 209.996094 133.394531 C 209.832031 131.503906 209.101562 129.484375 207.816406 127.351562 C 204.980469 129.242188 201.382812 130.257812 197.027344 130.402344 C 196.605469 131.414062 195.605469 132.128906 194.4375 132.128906 C 192.882812 132.128906 191.625 130.867188 191.625 129.300781 C 191.625 127.738281 192.882812 126.472656 194.4375 126.472656 C 195.605469 126.472656 196.613281 127.195312 197.035156 128.230469 C 201.8125 128.054688 205.523438 126.75 208.171875 124.320312 C 210.828125 121.886719 212.46875 118.265625 213.09375 113.472656 C 206.878906 110.578125 199.625 109.109375 191.320312 109.824219 C 190.390625 110.617188 189.535156 111.40625 188.757812 112.191406 C 190.101562 114.574219 192.269531 115.714844 195.261719 115.578125 C 195.570312 114.363281 196.671875 113.457031 197.976562 113.457031 C 199.53125 113.457031 200.785156 114.71875 200.785156 116.285156 C 200.785156 117.847656 199.53125 119.113281 197.976562 119.113281 C 196.960938 119.113281 196.066406 118.5625 195.570312 117.753906 C 191.835938 118.011719 189.054688 116.710938 187.234375 113.859375 C 185.832031 115.53125 184.816406 117.171875 184.183594 118.785156 C 183.117188 121.5 183.167969 124.164062 184.316406 126.78125 C 184.433594 126.769531 184.546875 126.761719 184.664062 126.761719 C 186.214844 126.761719 187.472656 128.027344 187.472656 129.589844 C 187.472656 131.15625 186.214844 132.421875 184.664062 132.421875 C 183.109375 132.421875 181.851562 131.15625 181.851562 129.589844 C 181.851562 128.945312 182.074219 128.34375 182.4375 127.871094 C 180.949219 124.65625 180.855469 121.363281 182.179688 118.003906 C 183.042969 115.800781 184.507812 113.570312 186.601562 111.332031 C 186.636719 111.28125 186.675781 111.234375 186.726562 111.195312 C 187.011719 110.886719 187.308594 110.585938 187.617188 110.277344 C 187.394531 110.316406 187.175781 110.347656 186.945312 110.382812 C 183.636719 110.238281 179.609375 110.886719 176.546875 111.917969 C 172.882812 112.644531 169.449219 113.53125 166.246094 114.59375 C 165.601562 117.433594 165.21875 120.167969 165.085938 122.792969 C 164.914062 126.277344 165.179688 129.570312 165.910156 132.660156 C 167.300781 132.824219 168.382812 134.023438 168.382812 135.460938 C 168.382812 137.027344 167.128906 138.292969 165.574219 138.292969 C 164.019531 138.292969 162.765625 137.027344 162.765625 135.460938 C 162.765625 134.5625 163.175781 133.761719 163.828125 133.242188 C 163.136719 130.335938 162.820312 127.273438 162.886719 124.058594 C 162.128906 124.734375 161.304688 125.253906 160.414062 125.613281 C 159.328125 126.046875 158.160156 126.238281 156.921875 126.191406 C 156.421875 126.992188 155.539062 127.523438 154.542969 127.523438 C 152.988281 127.523438 151.734375 126.257812 151.734375 124.695312 C 151.734375 123.128906 152.988281 121.867188 154.542969 121.867188 C 155.867188 121.867188 156.96875 122.78125 157.265625 124.027344 C 158.113281 124.039062 158.898438 123.894531 159.617188 123.605469 C 160.941406 123.074219 162.101562 122.019531 163.109375 120.464844 C 163.273438 118.824219 163.53125 117.144531 163.875 115.425781 C 149.304688 120.824219 138.9375 129.542969 137.402344 143.542969 C 131.65625 148.148438 132.40625 155.632812 135.03125 160.839844 C 135.742188 162.238281 136.460938 163.425781 137.269531 164.480469 C 140.089844 168.398438 143.253906 171.691406 146.773438 174.359375 C 147.3125 168.46875 149.324219 163.9375 152.828125 160.761719 C 151.609375 158.628906 150.285156 157.246094 148.835938 156.601562 C 147.789062 156.136719 146.640625 156.058594 145.402344 156.378906 C 145.191406 157.730469 144.03125 158.753906 142.628906 158.753906 C 141.074219 158.753906 139.820312 157.488281 139.820312 155.921875 C 139.820312 154.359375 141.074219 153.09375 142.628906 153.09375 C 143.558594 153.09375 144.386719 153.546875 144.894531 154.253906 C 146.589844 153.820312 148.195312 153.933594 149.699219 154.601562 C 151.503906 155.402344 153.113281 156.996094 154.523438 159.390625 C 156.578125 157.960938 159.03125 156.910156 161.871094 156.234375 C 160.453125 154.8125 159.359375 153.160156 158.582031 151.277344 C 157.8125 149.425781 157.371094 147.359375 157.25 145.070312 C 156.230469 144.644531 155.511719 143.640625 155.511719 142.453125 C 155.511719 140.890625 156.769531 139.625 158.324219 139.625 C 159.875 139.625 161.132812 140.890625 161.132812 142.453125 C 161.132812 143.621094 160.421875 144.625 159.417969 145.058594 C 159.539062 147.050781 159.925781 148.84375 160.585938 150.449219 C 161.449219 152.535156 162.773438 154.292969 164.558594 155.730469 C 167.234375 155.34375 170.207031 155.257812 173.488281 155.449219 L 173.582031 155.460938 C 176.644531 155.933594 179.050781 155.546875 180.777344 154.292969 C 179.78125 154.003906 178.851562 153.421875 177.96875 152.574219 C 176.929688 151.558594 175.980469 150.148438 175.128906 148.324219 C 173.574219 148.324219 172.316406 147.058594 172.316406 145.496094 C 172.316406 143.929688 173.574219 142.664062 175.128906 142.664062 C 176.683594 142.664062 177.9375 143.929688 177.9375 145.496094 C 177.9375 146.265625 177.632812 146.972656 177.125 147.484375 C 177.851562 149.019531 178.640625 150.199219 179.472656 151.019531 C 180.433594 151.953125 181.46875 152.398438 182.582031 152.339844 C 183.644531 150.652344 184.269531 148.304688 184.46875 145.300781 C 184.46875 145.261719 184.480469 145.234375 184.480469 145.195312 C 184.519531 144.859375 184.585938 144.539062 184.671875 144.25 C 185.054688 143.0625 185.890625 142.242188 187.167969 141.765625 C 188.257812 141.363281 189.699219 141.246094 191.472656 141.410156 C 192.335938 141.488281 193.296875 141.640625 194.332031 141.855469 C 195.117188 141.148438 195.675781 140.394531 196 139.59375 C 196.078125 139.410156 196.132812 139.226562 196.191406 139.035156 C 195.195312 138.601562 194.496094 137.605469 194.496094 136.4375 C 194.496094 134.871094 195.75 133.609375 197.304688 133.609375 C 198.859375 133.609375 200.117188 134.871094 200.117188 136.4375 C 200.117188 137.605469 199.40625 138.609375 198.398438 139.042969 C 198.3125 139.507812 198.179688 139.960938 197.996094 140.40625 C 197.707031 141.121094 197.296875 141.796875 196.769531 142.433594 C 197.113281 142.53125 197.457031 142.625 197.8125 142.734375 C 198.332031 142.113281 199.097656 141.71875 199.972656 141.71875 C 201.527344 141.71875 202.78125 142.984375 202.78125 144.546875 C 202.78125 146.113281 201.527344 147.378906 199.972656 147.378906 C 198.511719 147.378906 197.304688 146.246094 197.179688 144.820312 C 196.203125 144.527344 195.28125 144.296875 194.4375 144.105469 C 194.417969 144.105469 194.390625 144.09375 194.371094 144.085938 C 193.226562 143.832031 192.203125 143.660156 191.289062 143.574219 C 189.84375 143.4375 188.71875 143.515625 187.925781 143.816406 C 187.300781 144.046875 186.90625 144.421875 186.734375 144.945312 C 186.6875 145.097656 186.648438 145.261719 186.628906 145.425781 L 186.628906 145.457031 C 186.390625 149.078125 185.546875 151.917969 184.097656 153.964844 C 184.078125 153.992188 184.058594 154.019531 184.039062 154.050781 C 183.675781 154.5625 183.261719 155.015625 182.820312 155.429688 C 180.546875 157.515625 177.382812 158.25 173.304688 157.625 C 165.125 157.140625 159.011719 158.53125 154.945312 161.792969 C 154.90625 161.832031 154.859375 161.871094 154.8125 161.902344 C 154.660156 162.027344 154.515625 162.152344 154.371094 162.277344 C 150.996094 165.289062 149.152344 169.800781 148.84375 175.804688 C 158.199219 181.996094 169.851562 184.042969 183.808594 181.949219 C 186.253906 181.675781 188.644531 181.222656 190.984375 180.652344 C 192.019531 181.714844 193.160156 182.679688 194.378906 183.976562 C 204.980469 195.234375 203.453125 204.1875 210.886719 202.417969 Z M 211.039062 173.585938 C 210.523438 174.15625 209.785156 174.511719 208.960938 174.511719 C 208.660156 174.511719 208.375 174.464844 208.113281 174.375 C 206.984375 174.011719 206.160156 172.949219 206.160156 171.683594 C 206.160156 170.707031 206.648438 169.859375 207.386719 169.347656 C 207.175781 168.621094 206.917969 167.925781 206.609375 167.261719 C 206.042969 166.035156 205.304688 164.914062 204.394531 163.898438 C 201.71875 164.160156 199.242188 164.46875 196.988281 164.828125 C 196.941406 164.835938 196.890625 164.847656 196.84375 164.847656 C 193.324219 165.40625 190.3125 166.082031 187.808594 166.863281 C 185.085938 167.722656 182.984375 168.707031 181.527344 169.808594 C 181.667969 170.148438 181.757812 170.523438 181.757812 170.921875 C 181.757812 172.484375 180.5 173.75 178.945312 173.75 C 177.390625 173.75 176.136719 172.484375 176.136719 170.921875 C 176.136719 169.355469 177.390625 168.089844 178.945312 168.089844 C 179.308594 168.089844 179.65625 168.160156 179.972656 168.285156 C 181.667969 166.933594 184.066406 165.761719 187.167969 164.789062 C 189.238281 164.140625 191.625 163.5625 194.359375 163.070312 C 193.621094 162.210938 193.035156 161.207031 192.625 160.054688 C 192.183594 158.847656 191.933594 157.488281 191.855469 155.972656 C 190.867188 155.539062 190.179688 154.542969 190.179688 153.382812 C 190.179688 151.820312 191.433594 150.554688 192.988281 150.554688 C 194.542969 150.554688 195.800781 151.820312 195.800781 153.382812 C 195.800781 154.582031 195.058594 155.59375 194.023438 156.011719 C 194.089844 157.246094 194.300781 158.347656 194.65625 159.3125 C 195.15625 160.683594 195.953125 161.792969 197.046875 162.625 C 199.375 162.269531 201.910156 161.957031 204.652344 161.699219 C 210.878906 160.066406 215.367188 157.59375 218.109375 154.261719 C 220.34375 151.558594 221.4375 148.246094 221.390625 144.335938 C 220.277344 143.960938 219.472656 142.90625 219.472656 141.652344 C 219.472656 140.085938 220.730469 138.824219 222.28125 138.824219 C 223.835938 138.824219 225.09375 140.085938 225.09375 141.652344 C 225.09375 142.753906 224.46875 143.707031 223.550781 144.171875 C 223.636719 148.664062 222.378906 152.484375 219.769531 155.644531 C 216.976562 159.03125 212.644531 161.601562 206.78125 163.347656 C 207.492188 164.277344 208.097656 165.269531 208.59375 166.332031 C 208.976562 167.152344 209.285156 168.003906 209.535156 168.902344 C 210.828125 169.152344 211.808594 170.300781 211.808594 171.671875 C 211.808594 172.40625 211.53125 173.074219 211.078125 173.566406 Z M 186.964844 110.414062 C 186.992188 110.414062 187.011719 110.414062 187.042969 110.414062 Z M 186.964844 110.414062 " clip-rule="evenodd"/></clipPath><linearGradient x1="102.486182" gradientTransform="matrix(0.959209, 0, 0, 0.965632, 133.066667, 109.669917)" y1="-5.658662" x2="37.613248" gradientUnits="userSpaceOnUse" y2="116.366271" xlink:type="simple" xlink:actuate="onLoad" id="id3" xlink:show="other"><stop stop-opacity="1" stop-color="rgb(0%, 68.598938%, 93.699646%)" offset="0"/><stop stop-opacity="1" stop-color="rgb(0.112915%, 68.6203%, 93.583679%)" offset="0.0625"/><stop stop-opacity="1" stop-color="rgb(0.588989%, 68.711853%, 93.101501%)" offset="0.0664062"/><stop stop-opacity="1" stop-color="rgb(0.953674%, 68.782043%, 92.735291%)" offset="0.0703125"/><stop stop-opacity="1" stop-color="rgb(1.316833%, 68.850708%, 92.367554%)" offset="0.0742188"/><stop stop-opacity="1" stop-color="rgb(1.679993%, 68.920898%, 92.001343%)" offset="0.078125"/><stop stop-opacity="1" stop-color="rgb(2.043152%, 68.989563%, 91.633606%)" offset="0.0820312"/><stop stop-opacity="1" stop-color="rgb(2.406311%, 69.059753%, 91.265869%)" offset="0.0859375"/><stop stop-opacity="1" stop-color="rgb(2.76947%, 69.128418%, 90.898132%)" offset="0.0898438"/><stop stop-opacity="1" stop-color="rgb(3.132629%, 69.198608%, 90.531921%)" offset="0.09375"/><stop stop-opacity="1" stop-color="rgb(3.495789%, 69.267273%, 90.164185%)" offset="0.0976563"/><stop stop-opacity="1" stop-color="rgb(3.860474%, 69.337463%, 89.797974%)" offset="0.101562"/><stop stop-opacity="1" stop-color="rgb(4.223633%, 69.406128%, 89.430237%)" offset="0.105469"/><stop stop-opacity="1" stop-color="rgb(4.586792%, 69.476318%, 89.0625%)" offset="0.109375"/><stop stop-opacity="1" stop-color="rgb(4.949951%, 69.544983%, 88.694763%)" offset="0.113281"/><stop stop-opacity="1" stop-color="rgb(5.31311%, 69.615173%, 88.328552%)" offset="0.117188"/><stop stop-opacity="1" stop-color="rgb(5.67627%, 69.683838%, 87.960815%)" offset="0.121094"/><stop stop-opacity="1" stop-color="rgb(6.039429%, 69.754028%, 87.594604%)" offset="0.125"/><stop stop-opacity="1" stop-color="rgb(6.402588%, 69.822693%, 87.226868%)" offset="0.128906"/><stop stop-opacity="1" stop-color="rgb(6.767273%, 69.892883%, 86.860657%)" offset="0.132812"/><stop stop-opacity="1" stop-color="rgb(7.130432%, 69.961548%, 86.49292%)" offset="0.136719"/><stop stop-opacity="1" stop-color="rgb(7.493591%, 70.031738%, 86.125183%)" offset="0.140625"/><stop stop-opacity="1" stop-color="rgb(7.85675%, 70.100403%, 85.757446%)" offset="0.144531"/><stop stop-opacity="1" stop-color="rgb(8.21991%, 70.170593%, 85.391235%)" offset="0.148438"/><stop stop-opacity="1" stop-color="rgb(8.583069%, 70.239258%, 85.023499%)" offset="0.152344"/><stop stop-opacity="1" stop-color="rgb(8.946228%, 70.309448%, 84.657288%)" offset="0.15625"/><stop stop-opacity="1" stop-color="rgb(9.309387%, 70.378113%, 84.289551%)" offset="0.160156"/><stop stop-opacity="1" stop-color="rgb(9.674072%, 70.448303%, 83.921814%)" offset="0.164062"/><stop stop-opacity="1" stop-color="rgb(10.037231%, 70.516968%, 83.554077%)" offset="0.167969"/><stop stop-opacity="1" stop-color="rgb(10.400391%, 70.587158%, 83.187866%)" offset="0.171875"/><stop stop-opacity="1" stop-color="rgb(10.76355%, 70.657349%, 82.820129%)" offset="0.175781"/><stop stop-opacity="1" stop-color="rgb(11.126709%, 70.727539%, 82.453918%)" offset="0.179688"/><stop stop-opacity="1" stop-color="rgb(11.489868%, 70.796204%, 82.086182%)" offset="0.183594"/><stop stop-opacity="1" stop-color="rgb(11.853027%, 70.866394%, 81.718445%)" offset="0.1875"/><stop stop-opacity="1" stop-color="rgb(12.216187%, 70.935059%, 81.350708%)" offset="0.191406"/><stop stop-opacity="1" stop-color="rgb(12.580872%, 71.005249%, 80.984497%)" offset="0.195313"/><stop stop-opacity="1" stop-color="rgb(12.944031%, 71.073914%, 80.61676%)" offset="0.199219"/><stop stop-opacity="1" stop-color="rgb(13.30719%, 71.144104%, 80.250549%)" offset="0.203125"/><stop stop-opacity="1" stop-color="rgb(13.670349%, 71.212769%, 79.882812%)" offset="0.207031"/><stop stop-opacity="1" stop-color="rgb(14.033508%, 71.282959%, 79.515076%)" offset="0.210938"/><stop stop-opacity="1" stop-color="rgb(14.396667%, 71.351624%, 79.147339%)" offset="0.214844"/><stop stop-opacity="1" stop-color="rgb(14.759827%, 71.421814%, 78.781128%)" offset="0.21875"/><stop stop-opacity="1" stop-color="rgb(15.122986%, 71.490479%, 78.413391%)" offset="0.222656"/><stop stop-opacity="1" stop-color="rgb(15.487671%, 71.560669%, 78.04718%)" offset="0.226562"/><stop stop-opacity="1" stop-color="rgb(15.85083%, 71.629333%, 77.679443%)" offset="0.230469"/><stop stop-opacity="1" stop-color="rgb(16.213989%, 71.699524%, 77.311707%)" offset="0.234375"/><stop stop-opacity="1" stop-color="rgb(16.577148%, 71.768188%, 76.94397%)" offset="0.238281"/><stop stop-opacity="1" stop-color="rgb(16.940308%, 71.838379%, 76.577759%)" offset="0.242187"/><stop stop-opacity="1" stop-color="rgb(17.303467%, 71.907043%, 76.210022%)" offset="0.246094"/><stop stop-opacity="1" stop-color="rgb(17.666626%, 71.977234%, 75.843811%)" offset="0.25"/><stop stop-opacity="1" stop-color="rgb(18.029785%, 72.045898%, 75.476074%)" offset="0.253906"/><stop stop-opacity="1" stop-color="rgb(18.39447%, 72.116089%, 75.109863%)" offset="0.257812"/><stop stop-opacity="1" stop-color="rgb(18.757629%, 72.184753%, 74.742126%)" offset="0.261719"/><stop stop-opacity="1" stop-color="rgb(19.120789%, 72.254944%, 74.37439%)" offset="0.265625"/><stop stop-opacity="1" stop-color="rgb(19.483948%, 72.323608%, 74.006653%)" offset="0.269531"/><stop stop-opacity="1" stop-color="rgb(19.847107%, 72.393799%, 73.640442%)" offset="0.273438"/><stop stop-opacity="1" stop-color="rgb(20.210266%, 72.462463%, 73.272705%)" offset="0.277344"/><stop stop-opacity="1" stop-color="rgb(20.573425%, 72.532654%, 72.906494%)" offset="0.28125"/><stop stop-opacity="1" stop-color="rgb(20.936584%, 72.601318%, 72.538757%)" offset="0.285156"/><stop stop-opacity="1" stop-color="rgb(21.30127%, 72.671509%, 72.171021%)" offset="0.289062"/><stop stop-opacity="1" stop-color="rgb(21.664429%, 72.740173%, 71.803284%)" offset="0.292969"/><stop stop-opacity="1" stop-color="rgb(22.027588%, 72.810364%, 71.437073%)" offset="0.296875"/><stop stop-opacity="1" stop-color="rgb(22.390747%, 72.879028%, 71.069336%)" offset="0.300781"/><stop stop-opacity="1" stop-color="rgb(22.753906%, 72.949219%, 70.703125%)" offset="0.304688"/><stop stop-opacity="1" stop-color="rgb(23.117065%, 73.019409%, 70.335388%)" offset="0.308594"/><stop stop-opacity="1" stop-color="rgb(23.480225%, 73.0896%, 69.967651%)" offset="0.3125"/><stop stop-opacity="1" stop-color="rgb(23.843384%, 73.158264%, 69.599915%)" offset="0.316406"/><stop stop-opacity="1" stop-color="rgb(24.208069%, 73.228455%, 69.233704%)" offset="0.320312"/><stop stop-opacity="1" stop-color="rgb(24.571228%, 73.297119%, 68.865967%)" offset="0.324219"/><stop stop-opacity="1" stop-color="rgb(24.934387%, 73.36731%, 68.499756%)" offset="0.328125"/><stop stop-opacity="1" stop-color="rgb(25.297546%, 73.435974%, 68.132019%)" offset="0.332031"/><stop stop-opacity="1" stop-color="rgb(25.660706%, 73.506165%, 67.764282%)" offset="0.335938"/><stop stop-opacity="1" stop-color="rgb(26.023865%, 73.574829%, 67.396545%)" offset="0.339844"/><stop stop-opacity="1" stop-color="rgb(26.387024%, 73.64502%, 67.030334%)" offset="0.34375"/><stop stop-opacity="1" stop-color="rgb(26.750183%, 73.713684%, 66.662598%)" offset="0.347656"/><stop stop-opacity="1" stop-color="rgb(27.114868%, 73.783875%, 66.296387%)" offset="0.351562"/><stop stop-opacity="1" stop-color="rgb(27.478027%, 73.852539%, 65.92865%)" offset="0.355469"/><stop stop-opacity="1" stop-color="rgb(27.841187%, 73.922729%, 65.560913%)" offset="0.359375"/><stop stop-opacity="1" stop-color="rgb(28.204346%, 73.991394%, 65.193176%)" offset="0.363281"/><stop stop-opacity="1" stop-color="rgb(28.567505%, 74.061584%, 64.826965%)" offset="0.367188"/><stop stop-opacity="1" stop-color="rgb(28.930664%, 74.130249%, 64.459229%)" offset="0.371094"/><stop stop-opacity="1" stop-color="rgb(29.293823%, 74.200439%, 64.093018%)" offset="0.375"/><stop stop-opacity="1" stop-color="rgb(29.656982%, 74.269104%, 63.725281%)" offset="0.378906"/><stop stop-opacity="1" stop-color="rgb(30.021667%, 74.339294%, 63.357544%)" offset="0.382813"/><stop stop-opacity="1" stop-color="rgb(30.384827%, 74.407959%, 62.989807%)" offset="0.386719"/><stop stop-opacity="1" stop-color="rgb(30.747986%, 74.478149%, 62.623596%)" offset="0.390625"/><stop stop-opacity="1" stop-color="rgb(31.111145%, 74.546814%, 62.255859%)" offset="0.394531"/><stop stop-opacity="1" stop-color="rgb(31.474304%, 74.617004%, 61.889648%)" offset="0.398438"/><stop stop-opacity="1" stop-color="rgb(31.837463%, 74.685669%, 61.521912%)" offset="0.402344"/><stop stop-opacity="1" stop-color="rgb(32.202148%, 74.755859%, 61.155701%)" offset="0.40625"/><stop stop-opacity="1" stop-color="rgb(32.565308%, 74.824524%, 60.787964%)" offset="0.410156"/><stop stop-opacity="1" stop-color="rgb(32.928467%, 74.894714%, 60.420227%)" offset="0.414063"/><stop stop-opacity="1" stop-color="rgb(33.291626%, 74.963379%, 60.05249%)" offset="0.417969"/><stop stop-opacity="1" stop-color="rgb(33.654785%, 75.033569%, 59.686279%)" offset="0.421875"/><stop stop-opacity="1" stop-color="rgb(34.017944%, 75.102234%, 59.318542%)" offset="0.425781"/><stop stop-opacity="1" stop-color="rgb(34.381104%, 75.172424%, 58.952332%)" offset="0.429688"/><stop stop-opacity="1" stop-color="rgb(34.744263%, 75.241089%, 58.584595%)" offset="0.433594"/><stop stop-opacity="1" stop-color="rgb(35.108948%, 75.311279%, 58.216858%)" offset="0.4375"/><stop stop-opacity="1" stop-color="rgb(35.472107%, 75.38147%, 57.849121%)" offset="0.441406"/><stop stop-opacity="1" stop-color="rgb(35.835266%, 75.45166%, 57.48291%)" offset="0.445313"/><stop stop-opacity="1" stop-color="rgb(36.198425%, 75.520325%, 57.115173%)" offset="0.449219"/><stop stop-opacity="1" stop-color="rgb(36.561584%, 75.590515%, 56.748962%)" offset="0.453125"/><stop stop-opacity="1" stop-color="rgb(36.924744%, 75.65918%, 56.381226%)" offset="0.457031"/><stop stop-opacity="1" stop-color="rgb(37.287903%, 75.72937%, 56.013489%)" offset="0.460938"/><stop stop-opacity="1" stop-color="rgb(37.651062%, 75.798035%, 55.645752%)" offset="0.464844"/><stop stop-opacity="1" stop-color="rgb(38.015747%, 75.868225%, 55.279541%)" offset="0.46875"/><stop stop-opacity="1" stop-color="rgb(38.378906%, 75.93689%, 54.911804%)" offset="0.472656"/><stop stop-opacity="1" stop-color="rgb(38.742065%, 76.00708%, 54.545593%)" offset="0.476563"/><stop stop-opacity="1" stop-color="rgb(39.105225%, 76.075745%, 54.177856%)" offset="0.480469"/><stop stop-opacity="1" stop-color="rgb(39.468384%, 76.145935%, 53.81012%)" offset="0.484375"/><stop stop-opacity="1" stop-color="rgb(39.831543%, 76.2146%, 53.442383%)" offset="0.488281"/><stop stop-opacity="1" stop-color="rgb(40.194702%, 76.28479%, 53.076172%)" offset="0.492188"/><stop stop-opacity="1" stop-color="rgb(40.557861%, 76.353455%, 52.708435%)" offset="0.496094"/><stop stop-opacity="1" stop-color="rgb(40.922546%, 76.423645%, 52.342224%)" offset="0.5"/><stop stop-opacity="1" stop-color="rgb(41.285706%, 76.49231%, 51.974487%)" offset="0.503906"/><stop stop-opacity="1" stop-color="rgb(41.648865%, 76.5625%, 51.60675%)" offset="0.507812"/><stop stop-opacity="1" stop-color="rgb(42.012024%, 76.631165%, 51.239014%)" offset="0.511719"/><stop stop-opacity="1" stop-color="rgb(42.375183%, 76.701355%, 50.872803%)" offset="0.515625"/><stop stop-opacity="1" stop-color="rgb(42.738342%, 76.77002%, 50.505066%)" offset="0.519531"/><stop stop-opacity="1" stop-color="rgb(43.101501%, 76.84021%, 50.138855%)" offset="0.523438"/><stop stop-opacity="1" stop-color="rgb(43.464661%, 76.908875%, 49.771118%)" offset="0.527344"/><stop stop-opacity="1" stop-color="rgb(43.829346%, 76.979065%, 49.404907%)" offset="0.53125"/><stop stop-opacity="1" stop-color="rgb(44.192505%, 77.047729%, 49.03717%)" offset="0.535156"/><stop stop-opacity="1" stop-color="rgb(44.555664%, 77.11792%, 48.669434%)" offset="0.539063"/><stop stop-opacity="1" stop-color="rgb(44.918823%, 77.186584%, 48.301697%)" offset="0.542969"/><stop stop-opacity="1" stop-color="rgb(45.281982%, 77.256775%, 47.935486%)" offset="0.546875"/><stop stop-opacity="1" stop-color="rgb(45.645142%, 77.325439%, 47.567749%)" offset="0.550781"/><stop stop-opacity="1" stop-color="rgb(46.008301%, 77.39563%, 47.201538%)" offset="0.554688"/><stop stop-opacity="1" stop-color="rgb(46.37146%, 77.464294%, 46.833801%)" offset="0.558594"/><stop stop-opacity="1" stop-color="rgb(46.736145%, 77.534485%, 46.466064%)" offset="0.5625"/><stop stop-opacity="1" stop-color="rgb(47.099304%, 77.604675%, 46.098328%)" offset="0.566406"/><stop stop-opacity="1" stop-color="rgb(47.462463%, 77.674866%, 45.732117%)" offset="0.570313"/><stop stop-opacity="1" stop-color="rgb(47.825623%, 77.74353%, 45.36438%)" offset="0.574219"/><stop stop-opacity="1" stop-color="rgb(48.188782%, 77.813721%, 44.998169%)" offset="0.578125"/><stop stop-opacity="1" stop-color="rgb(48.551941%, 77.882385%, 44.630432%)" offset="0.582031"/><stop stop-opacity="1" stop-color="rgb(48.9151%, 77.952576%, 44.262695%)" offset="0.585938"/><stop stop-opacity="1" stop-color="rgb(49.278259%, 78.02124%, 43.894958%)" offset="0.589844"/><stop stop-opacity="1" stop-color="rgb(49.642944%, 78.091431%, 43.528748%)" offset="0.59375"/><stop stop-opacity="1" stop-color="rgb(50.006104%, 78.160095%, 43.161011%)" offset="0.597656"/><stop stop-opacity="1" stop-color="rgb(50.369263%, 78.230286%, 42.7948%)" offset="0.601562"/><stop stop-opacity="1" stop-color="rgb(50.732422%, 78.29895%, 42.427063%)" offset="0.605469"/><stop stop-opacity="1" stop-color="rgb(51.095581%, 78.369141%, 42.059326%)" offset="0.609375"/><stop stop-opacity="1" stop-color="rgb(51.45874%, 78.437805%, 41.691589%)" offset="0.613281"/><stop stop-opacity="1" stop-color="rgb(51.821899%, 78.507996%, 41.325378%)" offset="0.617188"/><stop stop-opacity="1" stop-color="rgb(52.185059%, 78.57666%, 40.957642%)" offset="0.621094"/><stop stop-opacity="1" stop-color="rgb(52.549744%, 78.646851%, 40.591431%)" offset="0.625"/><stop stop-opacity="1" stop-color="rgb(52.912903%, 78.715515%, 40.223694%)" offset="0.628906"/><stop stop-opacity="1" stop-color="rgb(53.276062%, 78.785706%, 39.855957%)" offset="0.632813"/><stop stop-opacity="1" stop-color="rgb(53.639221%, 78.85437%, 39.48822%)" offset="0.636719"/><stop stop-opacity="1" stop-color="rgb(54.00238%, 78.924561%, 39.122009%)" offset="0.640625"/><stop stop-opacity="1" stop-color="rgb(54.36554%, 78.993225%, 38.754272%)" offset="0.644531"/><stop stop-opacity="1" stop-color="rgb(54.728699%, 79.063416%, 38.388062%)" offset="0.648438"/><stop stop-opacity="1" stop-color="rgb(55.091858%, 79.13208%, 38.020325%)" offset="0.652344"/><stop stop-opacity="1" stop-color="rgb(55.456543%, 79.202271%, 37.654114%)" offset="0.65625"/><stop stop-opacity="1" stop-color="rgb(55.819702%, 79.270935%, 37.286377%)" offset="0.660156"/><stop stop-opacity="1" stop-color="rgb(56.182861%, 79.341125%, 36.91864%)" offset="0.664063"/><stop stop-opacity="1" stop-color="rgb(56.546021%, 79.40979%, 36.550903%)" offset="0.667969"/><stop stop-opacity="1" stop-color="rgb(56.90918%, 79.47998%, 36.184692%)" offset="0.671875"/><stop stop-opacity="1" stop-color="rgb(57.272339%, 79.548645%, 35.816956%)" offset="0.675781"/><stop stop-opacity="1" stop-color="rgb(57.635498%, 79.618835%, 35.450745%)" offset="0.679688"/><stop stop-opacity="1" stop-color="rgb(57.998657%, 79.6875%, 35.083008%)" offset="0.683594"/><stop stop-opacity="1" stop-color="rgb(58.363342%, 79.75769%, 34.715271%)" offset="0.6875"/><stop stop-opacity="1" stop-color="rgb(58.726501%, 79.826355%, 34.347534%)" offset="0.691406"/><stop stop-opacity="1" stop-color="rgb(59.089661%, 79.896545%, 33.981323%)" offset="0.695312"/><stop stop-opacity="1" stop-color="rgb(59.45282%, 79.966736%, 33.613586%)" offset="0.699219"/><stop stop-opacity="1" stop-color="rgb(59.815979%, 80.036926%, 33.247375%)" offset="0.703125"/><stop stop-opacity="1" stop-color="rgb(60.179138%, 80.105591%, 32.879639%)" offset="0.707031"/><stop stop-opacity="1" stop-color="rgb(60.542297%, 80.175781%, 32.511902%)" offset="0.710938"/><stop stop-opacity="1" stop-color="rgb(60.905457%, 80.244446%, 32.144165%)" offset="0.714844"/><stop stop-opacity="1" stop-color="rgb(61.270142%, 80.314636%, 31.777954%)" offset="0.71875"/><stop stop-opacity="1" stop-color="rgb(61.633301%, 80.383301%, 31.410217%)" offset="0.722656"/><stop stop-opacity="1" stop-color="rgb(61.99646%, 80.453491%, 31.044006%)" offset="0.726562"/><stop stop-opacity="1" stop-color="rgb(62.359619%, 80.522156%, 30.67627%)" offset="0.730469"/><stop stop-opacity="1" stop-color="rgb(62.722778%, 80.592346%, 30.308533%)" offset="0.734375"/><stop stop-opacity="1" stop-color="rgb(63.085938%, 80.661011%, 29.940796%)" offset="0.738281"/><stop stop-opacity="1" stop-color="rgb(63.449097%, 80.731201%, 29.574585%)" offset="0.742187"/><stop stop-opacity="1" stop-color="rgb(63.812256%, 80.799866%, 29.206848%)" offset="0.746094"/><stop stop-opacity="1" stop-color="rgb(64.176941%, 80.870056%, 28.840637%)" offset="0.75"/><stop stop-opacity="1" stop-color="rgb(64.5401%, 80.938721%, 28.4729%)" offset="0.753906"/><stop stop-opacity="1" stop-color="rgb(64.903259%, 81.008911%, 28.105164%)" offset="0.757812"/><stop stop-opacity="1" stop-color="rgb(65.266418%, 81.077576%, 27.737427%)" offset="0.761719"/><stop stop-opacity="1" stop-color="rgb(65.629578%, 81.147766%, 27.371216%)" offset="0.765625"/><stop stop-opacity="1" stop-color="rgb(65.763855%, 81.173706%, 27.235413%)" offset="0.78125"/><stop stop-opacity="1" stop-color="rgb(65.899658%, 81.199646%, 27.099609%)" offset="0.8125"/><stop stop-opacity="1" stop-color="rgb(65.899658%, 81.199646%, 27.099609%)" offset="0.875"/><stop stop-opacity="1" stop-color="rgb(65.899658%, 81.199646%, 27.099609%)" offset="1"/></linearGradient></defs><g clip-path="url(#id1)"><g clip-path="url(#id2)"><path fill="url(#id3)" d="M 132.957031 109.667969 L 132.957031 202.667969 L 241.582031 202.667969 L 241.582031 109.667969 Z M 132.957031 109.667969 " fill-rule="nonzero"/></g></g><g fill="rgb(85.099792%, 85.099792%, 85.099792%)" fill-opacity="1"><g transform="translate(107.621687, 230.871675)"><g><path d="M 11.800781 -6.878906 C 11.800781 -5.023438 10.621094 -3.976562 8.292969 -3.976562 C 6.84375 -3.976562 5.765625 -4.382812 4.957031 -4.652344 C 4.316406 -4.886719 3.777344 -5.058594 3.269531 -5.058594 C 2.023438 -5.058594 1.046875 -4.011719 1.046875 -2.933594 C 1.046875 -0.574219 5.765625 0.304688 8.257812 0.304688 C 13.082031 0.304688 16.652344 -2.394531 16.652344 -7.078125 C 16.652344 -11.867188 13.046875 -13.011719 9.742188 -14.058594 C 9 -14.261719 8.191406 -14.53125 7.316406 -14.96875 C 6.742188 -15.238281 5.898438 -15.742188 5.898438 -17.226562 C 5.898438 -19.214844 7.449219 -19.789062 9.101562 -19.789062 C 10.28125 -19.789062 11.023438 -19.519531 11.664062 -19.285156 C 12.238281 -19.117188 12.710938 -18.914062 13.316406 -18.914062 C 14.800781 -18.914062 15.675781 -19.925781 15.675781 -21.035156 C 15.675781 -23.566406 10.890625 -24.070312 8.898438 -24.070312 C 4.113281 -24.070312 1.078125 -21.441406 1.078125 -17.09375 C 1.078125 -12.203125 4.652344 -11.089844 7.957031 -10.082031 C 8.867188 -9.777344 9.710938 -9.472656 10.417969 -9.171875 C 11.023438 -8.898438 11.800781 -8.394531 11.800781 -6.878906 Z M 11.800781 -6.878906 "/></g></g></g><g fill="rgb(85.099792%, 85.099792%, 85.099792%)" fill-opacity="1"><g transform="translate(124.679234, 230.871675)"><g><path d="M 20.734375 -1.855469 C 20.734375 -0.707031 21.507812 0.203125 23.058594 0.203125 C 24.609375 0.203125 25.386719 -0.707031 25.386719 -1.855469 L 25.386719 -11.261719 C 25.386719 -14.867188 22.925781 -17.292969 18.945312 -17.292969 C 17.125 -17.292969 15.675781 -16.789062 13.855469 -15.8125 C 12.640625 -16.789062 11.359375 -17.292969 9.945312 -17.292969 C 8.496094 -17.292969 6.910156 -16.753906 5.394531 -15.8125 C 4.957031 -16.382812 4.382812 -16.753906 3.605469 -16.753906 C 2.460938 -16.753906 1.414062 -15.980469 1.414062 -14.765625 C 1.414062 -14.394531 1.515625 -14.125 1.988281 -13.484375 C 2.125 -13.28125 2.257812 -13.183594 2.257812 -12.070312 L 2.257812 -1.855469 C 2.257812 -0.707031 3.035156 0.203125 4.585938 0.203125 C 6.136719 0.203125 6.910156 -0.707031 6.910156 -1.855469 L 6.910156 -12.070312 C 6.910156 -12.171875 6.910156 -12.339844 6.878906 -12.441406 C 7.890625 -12.945312 8.898438 -13.316406 9.742188 -13.316406 C 11.226562 -13.316406 11.496094 -12.136719 11.496094 -10.585938 L 11.496094 -1.855469 C 11.496094 -0.707031 12.273438 0.203125 13.824219 0.203125 C 15.375 0.203125 16.148438 -0.707031 16.148438 -1.855469 L 16.148438 -11.261719 C 16.148438 -11.5625 16.113281 -11.832031 16.082031 -12.136719 C 16.992188 -12.878906 17.902344 -13.316406 18.777344 -13.316406 C 20.027344 -13.316406 20.734375 -12.371094 20.734375 -11.191406 Z M 20.734375 -1.855469 "/></g></g></g><g fill="rgb(85.099792%, 85.099792%, 85.099792%)" fill-opacity="1"><g transform="translate(151.580337, 230.871675)"><g><path d="M 15.171875 -10.316406 C 15.171875 -14.867188 13.183594 -17.292969 8.292969 -17.292969 C 5.496094 -17.292969 2.527344 -16.484375 2.527344 -14.496094 C 2.527344 -13.652344 3.066406 -12.542969 4.484375 -12.542969 C 5.125 -12.542969 5.496094 -12.777344 5.765625 -12.878906 C 6.4375 -13.183594 7.011719 -13.417969 7.957031 -13.417969 C 9.675781 -13.417969 10.519531 -12.675781 10.519531 -11.089844 L 10.519531 -10.011719 C 9.640625 -10.28125 8.765625 -10.351562 7.855469 -10.351562 C 3.40625 -10.351562 1.179688 -8.628906 1.179688 -5.191406 L 1.179688 -5.089844 C 1.179688 -1.886719 3.269531 0.234375 7.179688 0.234375 C 9.070312 0.234375 10.484375 -0.269531 11.730469 -1.28125 C 12.507812 -0.203125 13.351562 0.136719 14.597656 0.136719 C 16.382812 0.136719 17.023438 -0.539062 17.023438 -1.617188 C 17.023438 -2.328125 16.753906 -2.695312 16.25 -2.898438 C 15.675781 -3.136719 15.171875 -3.035156 15.171875 -4.046875 Z M 8.125 -7.078125 C 8.800781 -7.078125 9.675781 -6.980469 10.519531 -6.808594 L 10.519531 -4.382812 C 9.640625 -3.707031 8.765625 -3.507812 7.890625 -3.507812 C 6.4375 -3.507812 5.796875 -3.945312 5.796875 -5.058594 L 5.796875 -5.15625 C 5.796875 -6.167969 6.167969 -7.078125 8.125 -7.078125 Z M 8.125 -7.078125 "/></g></g></g><g fill="rgb(85.099792%, 85.099792%, 85.099792%)" fill-opacity="1"><g transform="translate(168.503039, 230.871675)"><g><path d="M 10.082031 -13.011719 C 11.359375 -12.945312 12.441406 -13.824219 12.441406 -15.136719 C 12.441406 -16.285156 11.800781 -17.160156 9.675781 -17.160156 C 8.597656 -17.160156 7.046875 -16.621094 5.496094 -15.710938 C 5.023438 -16.316406 4.417969 -16.753906 3.707031 -16.753906 C 2.496094 -16.753906 1.414062 -15.945312 1.414062 -14.734375 C 1.414062 -14.226562 1.617188 -13.957031 1.886719 -13.621094 C 2.15625 -13.214844 2.257812 -12.8125 2.257812 -12.035156 L 2.257812 -1.855469 C 2.257812 -0.675781 3.269531 0.234375 4.585938 0.234375 C 5.898438 0.234375 6.910156 -0.675781 6.910156 -1.855469 L 6.910156 -12.035156 C 6.910156 -12.238281 6.878906 -12.441406 6.84375 -12.675781 C 8.023438 -13.148438 8.628906 -13.082031 10.082031 -13.011719 Z M 10.082031 -13.011719 "/></g></g></g><g fill="rgb(85.099792%, 85.099792%, 85.099792%)" fill-opacity="1"><g transform="translate(180.537674, 230.871675)"><g><path d="M 2.15625 -7.011719 C 2.15625 -2.425781 3.507812 0.136719 8.730469 0.136719 C 10.417969 0.136719 11.96875 -0.136719 11.96875 -2.089844 C 11.96875 -3.335938 11.328125 -3.910156 9.203125 -3.910156 C 9.136719 -3.910156 8.933594 -3.878906 8.628906 -3.878906 C 7.011719 -3.878906 6.808594 -4.753906 6.808594 -7.25 L 6.808594 -12.339844 L 9.304688 -12.339844 C 10.550781 -12.339844 11.53125 -13.183594 11.53125 -14.328125 C 11.53125 -15.472656 10.550781 -16.351562 9.304688 -16.351562 L 6.808594 -16.351562 L 6.808594 -20.09375 C 6.808594 -21.207031 5.96875 -22.148438 4.484375 -22.148438 C 3 -22.148438 2.15625 -21.238281 2.15625 -20.09375 Z M 2.15625 -7.011719 "/></g></g></g><g fill="rgb(85.099792%, 85.099792%, 85.099792%)" fill-opacity="1"><g transform="translate(192.032936, 230.871675)"><g><path d="M 6.84375 -14.464844 L 6.84375 -19.519531 L 10.957031 -19.519531 C 12.710938 -19.519531 13.316406 -18.375 13.316406 -17.09375 C 13.316406 -15.273438 11.902344 -14.464844 10.722656 -14.464844 Z M 10.820312 -10.148438 C 12.609375 -10.148438 13.957031 -9.070312 13.957031 -7.148438 C 13.957031 -5.394531 12.84375 -4.28125 10.621094 -4.28125 L 6.84375 -4.28125 L 6.84375 -10.148438 Z M 10.316406 0 C 15.507812 0 18.675781 -3.136719 18.675781 -7.078125 C 18.675781 -10.011719 16.585938 -11.53125 14.496094 -12.371094 C 16.519531 -13.351562 18.035156 -14.800781 18.035156 -17.160156 C 18.035156 -20.53125 15.507812 -23.769531 10.449219 -23.769531 L 4.753906 -23.769531 C 3.335938 -23.769531 2.125 -22.722656 2.125 -21.339844 L 2.125 -2.425781 C 2.125 -1.113281 3.269531 0 4.753906 0 Z M 10.316406 0 "/></g></g></g><g fill="rgb(85.099792%, 85.099792%, 85.099792%)" fill-opacity="1"><g transform="translate(210.978288, 230.871675)"><g><path d="M 10.082031 -13.011719 C 11.359375 -12.945312 12.441406 -13.824219 12.441406 -15.136719 C 12.441406 -16.285156 11.800781 -17.160156 9.675781 -17.160156 C 8.597656 -17.160156 7.046875 -16.621094 5.496094 -15.710938 C 5.023438 -16.316406 4.417969 -16.753906 3.707031 -16.753906 C 2.496094 -16.753906 1.414062 -15.945312 1.414062 -14.734375 C 1.414062 -14.226562 1.617188 -13.957031 1.886719 -13.621094 C 2.15625 -13.214844 2.257812 -12.8125 2.257812 -12.035156 L 2.257812 -1.855469 C 2.257812 -0.675781 3.269531 0.234375 4.585938 0.234375 C 5.898438 0.234375 6.910156 -0.675781 6.910156 -1.855469 L 6.910156 -12.035156 C 6.910156 -12.238281 6.878906 -12.441406 6.84375 -12.675781 C 8.023438 -13.148438 8.628906 -13.082031 10.082031 -13.011719 Z M 10.082031 -13.011719 "/></g></g></g><g fill="rgb(85.099792%, 85.099792%, 85.099792%)" fill-opacity="1"><g transform="translate(223.012923, 230.871675)"><g><path d="M 15.171875 -10.316406 C 15.171875 -14.867188 13.183594 -17.292969 8.292969 -17.292969 C 5.496094 -17.292969 2.527344 -16.484375 2.527344 -14.496094 C 2.527344 -13.652344 3.066406 -12.542969 4.484375 -12.542969 C 5.125 -12.542969 5.496094 -12.777344 5.765625 -12.878906 C 6.4375 -13.183594 7.011719 -13.417969 7.957031 -13.417969 C 9.675781 -13.417969 10.519531 -12.675781 10.519531 -11.089844 L 10.519531 -10.011719 C 9.640625 -10.28125 8.765625 -10.351562 7.855469 -10.351562 C 3.40625 -10.351562 1.179688 -8.628906 1.179688 -5.191406 L 1.179688 -5.089844 C 1.179688 -1.886719 3.269531 0.234375 7.179688 0.234375 C 9.070312 0.234375 10.484375 -0.269531 11.730469 -1.28125 C 12.507812 -0.203125 13.351562 0.136719 14.597656 0.136719 C 16.382812 0.136719 17.023438 -0.539062 17.023438 -1.617188 C 17.023438 -2.328125 16.753906 -2.695312 16.25 -2.898438 C 15.675781 -3.136719 15.171875 -3.035156 15.171875 -4.046875 Z M 8.125 -7.078125 C 8.800781 -7.078125 9.675781 -6.980469 10.519531 -6.808594 L 10.519531 -4.382812 C 9.640625 -3.707031 8.765625 -3.507812 7.890625 -3.507812 C 6.4375 -3.507812 5.796875 -3.945312 5.796875 -5.058594 L 5.796875 -5.15625 C 5.796875 -6.167969 6.167969 -7.078125 8.125 -7.078125 Z M 8.125 -7.078125 "/></g></g></g><g fill="rgb(85.099792%, 85.099792%, 85.099792%)" fill-opacity="1"><g transform="translate(239.935622, 230.871675)"><g><path d="M 7.417969 -21.710938 C 7.417969 -22.992188 6.269531 -24.070312 4.789062 -24.070312 C 3.304688 -24.070312 2.15625 -23.027344 2.15625 -21.710938 C 2.15625 -20.429688 3.304688 -19.351562 4.789062 -19.351562 C 6.269531 -19.351562 7.417969 -20.394531 7.417969 -21.710938 Z M 7.113281 -15.136719 C 7.113281 -16.25 6.101562 -17.195312 4.789062 -17.195312 C 3.472656 -17.195312 2.460938 -16.25 2.460938 -15.136719 L 2.460938 -1.855469 C 2.460938 -0.675781 3.472656 0.234375 4.789062 0.234375 C 6.101562 0.234375 7.113281 -0.675781 7.113281 -1.855469 Z M 7.113281 -15.136719 "/></g></g></g><g fill="rgb(85.099792%, 85.099792%, 85.099792%)" fill-opacity="1"><g transform="translate(248.868858, 230.871675)"><g><path d="M 6.910156 -12.035156 C 6.910156 -12.238281 6.878906 -12.441406 6.84375 -12.675781 C 7.890625 -13.148438 8.730469 -13.382812 9.441406 -13.382812 C 10.789062 -13.382812 11.632812 -12.339844 11.632812 -10.652344 L 11.632812 -1.855469 C 11.632812 -0.707031 12.472656 0.203125 13.957031 0.203125 C 15.441406 0.203125 16.285156 -0.707031 16.285156 -1.855469 L 16.285156 -10.652344 C 16.285156 -14.597656 14.160156 -17.226562 9.910156 -17.226562 C 8.5625 -17.226562 6.980469 -16.789062 5.460938 -15.777344 C 4.988281 -16.382812 4.382812 -16.753906 3.675781 -16.753906 C 2.394531 -16.753906 1.414062 -15.914062 1.414062 -14.800781 C 1.414062 -14.363281 1.515625 -14.125 1.988281 -13.484375 C 2.125 -13.28125 2.257812 -13.183594 2.257812 -12.070312 L 2.257812 -1.855469 C 2.257812 -0.707031 3.035156 0.203125 4.585938 0.203125 C 6.136719 0.203125 6.910156 -0.707031 6.910156 -1.855469 Z M 6.910156 -12.035156 "/></g></g></g></svg>